<?xml version="1.0" encoding="utf-8"?>
<!-- Generator: Adobe Illustrator 24.1.2, SVG Export Plug-In . SVG Version: 6.00 Build 0)  -->
<svg version="1.1" id="Layer_1" xmlns="http://www.w3.org/2000/svg" xmlns:xlink="http://www.w3.org/1999/xlink" x="0px" y="0px"
	 viewBox="0 0 2262.3 1650.3" style="enable-background:new 0 0 2262.3 1650.3;" xml:space="preserve">
<style type="text/css">
	.st0{fill:none;stroke:#E8E8E8;stroke-width:0.5;stroke-miterlimit:10;}
	.st1{fill:none;stroke:#E8E8E8;stroke-width:0.5;stroke-linecap:round;stroke-linejoin:round;}
</style>
<path class="st0" d="M145,1327.8c30.1,9,56.3,4.2,78.5-18.3c10-10.1,20.7-19.4,33.2-26.4c26-14.5,52.9-19.4,81.2-7.2
	c14.4,6.2,25.7,16.5,36.2,28c12.5,13.7,25.7,27,46,29.6c3.5,0.3,7,0.9,10.3,2c20.1,7.3,38.8,17.3,55.1,30.6
	c28.6,23.3,61.4,35.2,98,37c34.1,1.7,68.3,2.9,102.5,3.4c34.8,0.5,69.5,2.9,104.3,2.1c7.5-0.2,14.8-2.3,22.2-3.4
	c25.8-3.8,45.9-18.2,64.3-34.2c16-13.9,29.4-30.6,36.5-51.4c7.2-21.3,3-34.2-16.8-45.6c-33.1-19-69.8-26.1-107.1-30.8
	c-15.3-1.9-30.7-2.9-46.1-3.9c-27.4-1.8-54.8-5.1-82.2-7c-33.8-2.3-66.7-8.7-97.8-22.1c-29.9-12.8-53-33.4-63.5-64.5
	c-9-26.8-25.2-47.8-46.4-66.3c-9.9-8.7-39.4-8.2-53.5-12.7c-17.6-5-34.4-12.6-49.8-22.6c-33.5-21.5-57.9-50.5-75.7-85.6
	c-17-33.3-19.1-69.7-23.7-105.6c-1.7-13.4-3.8-26.5-8.6-39c-11.3-28.7-31-51.8-53.8-71.7c-34.2-29.8-56.4-66.2-70-108.5
	c-5.3-16.4-7.3-33.8-4-49.9c5.8-28.2,24.7-46.6,52-57.7c29-11.8,58.2-9.1,87.8-4.4c34.8,5.5,67.9,16.9,101.5,26.7
	c35.8,10.5,72.3,18.5,108.1,28.9c28.3,8.2,49.5,5.6,51.7,2.7c3-5,8.4-7.4,13.1-9.8c24.7-12.5,40.3-34,55.9-55
	c8.6-11.6,4.9-22.3-3.4-29.7c-4.6-4.1-10.7-5.3-16.6-6.4c-19.6-3.7-38.3-9.7-54.5-21.8c-11.9-8.9-21.2-20.2-29.3-32
	c-15.4-22.6-27-47.4-24.8-75.3c1.8-22.2,9.1-43.6,13.5-65.5c3.7-18.1,8.8-36.1,10-54.6c2.3-36.9-7.2-71.4-22.8-104.7
	c-13.6-28.9-33.6-53.8-49.9-81c-8.4-14-16.1-28.4-20.1-44.3H369c4.3,8.8,5.7,18.6,8.7,27.9c2.6,8,4.8,16.1,5.5,24.6
	c0.5,5.5-1.6,9.5-6.5,11.8c-4.5,2.3-10,1.6-13.8-1.8c-3.3-2.8-6.2-6-9.3-9C344.3,43,319,17.5,296.7-0.2H40.8
	C27.1,23.5,13.6,47.2,0,70.9V253c11.1,13.9,25.2,24.7,39.8,34.9c37,25.9,76.6,47.5,117.3,67.3c32.5,15.8,65.1,31.3,98.8,44.6
	c10,4,48,20.9,48,20.9c13.9,3.6,28.1,6.3,41.5,11.1c23.1,8.4,44.2,21,61.8,38.1c20.8,20.5,45.3,36.8,72.1,48.2
	c4.8,2.1,9.4,4.5,13.9,7.3c10.4,6.2,11.3,14.1,2.8,22.7c-1.9,1.9-4.1,3.4-6.5,4.6c-4,2.1-47.2,0.5-53.5-1.8
	c-51.3-18.5-102.6-36.7-156.1-47.9c-21-4.4-42.2-7.7-63.6-9.8c-24.3-2.4-48.3-2.7-71,6.1c-31.3,12.2-53.7,34.4-66.4,65.3
	c-6.7,16.3-6.2,33.3-4.2,50.9c4.9,41.4,26.3,74,53.9,103.6c23.2,24.8,48.5,47.6,68.4,75.4c24.9,34.8,39.2,73.5,47.9,114.8
	c7,32.9,14.9,65.5,31.2,95.6c20.9,38.7,51.8,65.2,94.4,78.1c30.2,9.1,55.4,25,77.9,47c19.2,18.8,34,40.6,50.2,61.4
	c12.4,16,28.8,26.9,45.6,36.9c29.5,17.6,61.8,27.6,95.8,33.3c22.4,3.7,44.8,6.8,67.5,8.9c35.6,3.3,71.3,4.7,107.1,5.8
	c17,0.5,34,5,49.9,12.2c8.2,3.7,14,9.2,17.6,17.3c5.2,12-0.9,21.6-7.7,29.9c-19.5,24-45.7,37.9-75.5,45.6c-20.3,5.2-41,6-61.8,7.7
	c-21.6,1.8-43.1,1.6-64.7,1.2c-21.4-0.4-42.6-3.2-63.8-6.7c-48.5-8-93.5-24.9-136.5-47.7c-13.3-7-25.4-15.8-37-25.4
	c-16-12.3-42.5-15.8-53.5-25.5c-1.9-1.8-3.8-3.6-5.5-5.5c-24.4-26.2-55.7-33.1-89.5-28.7c-28.5,3.6-55.3,15.3-77.4,33.5
	c-13,10.7-28.2,14.4-43.6,14.7c-15.7,0.3-31.5-3.8-46.2-10.4c-43.7-19.7-81.5-48.1-119.2-76.8v46.3c16.4,7.7,32.3,16.5,47.9,25.4
	C79,1301.1,110.5,1317.4,145,1327.8z M382,230.6c-0.2,18.6-0.9,37.3-6,55.5c-4.7,16.3-5.4,33.4-2.1,50c2.9,14.4,6.6,28.7,5.7,43.6
	c-0.9,15.7-10.2,25.1-24,22.6c-5-0.9-10.5-1.8-14.8-5.3c-5.9-3.2-31.9-24.6-50.8-31.8c-28.4-8.3-57.2-15.4-85.8-23
	c-31.6-8.4-62.2-19.6-88.8-39.6c-46.9-35.3-67.4-81.5-60.9-139.3c2.3-20.8,9.7-40,19.5-58.2c18.4-34.1,44.8-62,74-87.1
	C163,5.2,181.8-3.3,202.2,0.8c24,4.7,46.8,13.9,67.4,27c34.2,21.7,59.5,52,82,84.7c7.2,10.5,12.5,22.3,16.8,34.4
	C378.2,174,382.3,202.1,382,230.6z"/>
<path class="st0" d="M383.3,1536c-15.7-7-34.6-21.9-50.8-37.3c-5.7-4.5-12.9-5.1-19.4-7.2c-38.6-12.7-78.2-20.9-118.1-28.4
	c-21.9-4.1-43.9-8.9-63.7-19.9c-15.6-8.7-29.5-19.8-43.5-30.8c-9.2-7.2-18-14.5-24.3-24.2c9.1-9.9,8.9-9.1,20.7-6.9
	c22.5,4.3,43,14.3,64.6,21c25,7.8,49.8,16.3,76.6,15.5c14.1-0.4,25.6-5.1,31.4-19.1c2.8-7.1,5-14.4,6.4-21.9
	c4.2-20.4,10.5-39.8,23.9-56.5c15.6-19.3,29.4-18.8,49-5.4c15,10.2,23.9,25.2,33.2,40.1c12,19.2,17.9,28.7,32.3,50
	c10.8,15.9,21.3,32.1,33.2,47.4c18.4,23.8,39.5,44.7,65.7,59.9c16.7,9.7,27.3,6.3,38.7-6.3c5.3-5.9,8.9-12.9,11.9-20.1
	c4.4-10.4,9.2-20.3,16.6-29.2c20.7-24.7,51.5-32.4,76.6-25.8c34.6,9.2,68.3,21.5,104.5,25.2c24.3,2.5,48.2,2.3,72-3
	c27.9-6.2,48.9-22.6,65.5-44.6c27.2-36.3,58-69,96.1-94.6c6.5-4.4,12.3-9.6,17.5-15.5c7.3-8.2,7.5-16.1,1-25.4
	c-9.4-13.5-23.3-20.9-38.8-24.3c-25.8-5.8-51.4-12.3-74.7-24.9c-35.1-19.2-68.8-41.1-100.6-65.5c-14.2-10.8-28-22.6-44.5-29.6
	c-18.3-7.7-36.9-12-56.4,0.3c-18.6,11.7-39.7,17.3-62.5,18c-20.3,0.7-35.7-13.6-40.8-29.5c-4.8-14.9-7.5-29.9-7.3-45.5
	c0.1-2.5-0.1-4.9-0.7-7.3c-7-26.5-22.9-46.2-49.1-54.5c-14.2-4.5-48.6,8.3-56.3,8.2s-14.8-2.6-22.2-4.5c-84-21.1-131.7-77-154-156.6
	c-7.5-26.8-11.2-54.5-20.4-80.9c-8-23-17.4-44.7-34.8-63.1c-13.1-13.8-27.1-26.7-39.3-41.4c-13.5-16.4-22.7-34-23-55.6
	c-0.2-15.5,16.2-37.5,33.3-43.7c23.5-8.5,47.6-8.7,72-5.4c37,5,71.6,17.9,106.1,31c37.7,14.4,75.2,29.5,112.7,44.5
	c17,6.8,51.1-11,59.1-13.5c16.3-3.7,27.9-14,38.8-25.6c14.2-15.1,25.1-32.8,38.8-48.2c29.5-33.4,58.1-67.5,83.9-103.8
	c9.4-13.1,18.7-26.4,24.1-41.8c6.3-17.9-1-27.4-13-31.8c-8.2-3-16.3-0.5-23.9,1.9c-20.6,6.3-41.2,12.9-61.7,19.5
	c-24.5,7.9-38.7-2.8-48-17c-12.7-19.2-17.4-41-18.5-63.6c-0.6-12.7,0.3-25.5,0.7-38.2c0.9-29.3-1.8-58.7-8.1-87.3
	C563.7,157.7,550,124,531,93.2c-16-25.9-36.2-48.8-53.8-73.5c-4.5-6.4-8-13.8-13.2-19.9h-46.5c13.1,21.5,29,41,45.9,60
	c22.3,25.2,38.2,54.5,49.1,86.2c6,17.5,10,35.4,13.2,53.6c4.1,23.6,3.2,47.3,3.4,71c0,3.5-1.3,8.2-1.8,16.4
	c-1.4,22.1-5.1,44.2-3.5,66.4c1.3,17.9,0.3,36.3,5.5,53.6c6.5,21.6,16.8,28.5,39.5,29.2c21.3,0.8,42.5,1.1,63.7-0.8
	c8.8-0.8,17.5-2.8,25.8-5.7c8.4-2.9,16.7-3.8,23,3.7c6.1,7.3,4.9,15.5,1,23.6c-7.7,16.1-20.2,28.5-33.4,39.8
	c-18.1,15.6-34.6,32.3-47.8,52.1c-7,10.6-14.1,21-22,31c-8.3,10.4-18.4,17.8-29.7,24.4c-5.6,3.2-42,14.1-60.9,9.1
	c-41.6-11-79.3-32.4-120.8-44c-27.5-7.7-55.4-13.2-83.2-19.8c-16.2-3.8-32.6-7-49-8.6c-14-1.3-28.3-1.6-42.4,0.6
	c-11.8,1.8-23.7,3.5-34.2,10c-16.1,10-24.9,23.5-27.1,42.7c-4,35.5,9.6,64.2,33.9,87.9c16.6,16.1,34.3,31.1,50.3,47.8
	c21.4,22.3,39,46.9,47.4,77.2c3,10.7,4.8,21.7,5.3,32.8c2.5,60.6,24.8,112.3,70.2,153.7c19,17.3,41.6,29,64.6,40.1
	c13.4,6.5,26.5,13.3,41.6,15.5c11.4,1.6,22.8,0,34.2,0.9c12,1,23.7,3.6,34.2,9.9c8,4.8,11.6,12.4,11.8,20.9
	c0.4,17.2,4.1,33.7,9.3,50.1c9,28.4,27.6,46.6,56.4,55.6c28.5,8.9,57.7,8.3,86.8,6.9c12-0.6,23.8-3.4,36-3.4
	c28.5,0.1,56.6,6.7,82.1,19.3c24.4,11.8,49,23,75.7,29.1c12.6,2.9,25.6,3.3,37.9,7.9c21.1,8,32.9,23.4,39.8,43.8
	c2.1,6.2,0.8,12-1.2,17.2c-11,28.2-30,51.2-51.7,71.8c-19.8,18.8-43.8,31.6-69,42.2c-13.4,5.6-27.6,8-41.6,8.6
	c-25.9,1.2-51.9,0.4-77.6-4.8c-13.8-2.8-28.2-3.6-42.4-3.8c-36.3-0.5-72.6,0.3-108.9-0.3c-32-0.5-62.2-8.2-88.7-27.1
	c-6.9-4.9-13.4-10.4-19.4-16.4c-7.4-7.6-14.3-15.8-24-21c-15-5.9-43.4-12.5-51.7-27.3c-9.7-22.8-39.6-44-70.2-41
	c-17.9,1.8-32.4,8.4-38.7,26.4c-4.7,13.4-11.5,25.9-18.6,38.1c-14.1,24.3-25.6,31.1-55.3,24.4c-35.9-8.1-69.6-22-101.6-39.8
	c-26.2-14.5-50.4-32-74.8-49.2c-3-2.1-8.1-3.4-14-3.7v122.9c31.2,25.9,80.9,41.3,107.2,63.7c19.7,16.8,41.6,26.6,66.5,31.9
	c27.4,5.8,55.4,9.5,82.2,18c10.3,3.2,20.2,7.5,29.5,12.8c22.5,13.7,32.3,25.5,44.3,45.5c12.9,21.3,19,45.2,20.3,70
	c0,0.2,0,0.4,0.1,0.6h156.2C477.2,1600,438.4,1560.8,383.3,1536z"/>
<path class="st0" d="M691.4,1614.1c-8.5-15.1-28.2-9.7-50.5-20.2s-36.5-15.3-73.6-11.4s-16.8,18.4-19,34.2
	c-1.8,12.9,4.7,20.6,23.8,33.6h130C703.7,1638.3,697.4,1624.6,691.4,1614.1z"/>
<path class="st0" d="M329.7,1579.7c-12-20-21.8-31.8-44.3-45.5c-9.3-5.4-19.2-9.7-29.5-12.8c-26.9-8.5-54.8-12.2-82.2-18
	c-24.9-5.3-46.8-15.1-66.5-31.9c-26.3-22.4-76-37.8-107.2-63.7v242.5h350.1c0-0.2,0-0.4-0.1-0.6
	C348.7,1624.9,342.6,1601,329.7,1579.7z"/>
<path class="st0" d="M88.7,1337.8c32.1,17.8,65.8,31.7,101.6,39.8c29.6,6.7,41.2-0.1,55.3-24.4c7.1-12.2,13.9-24.7,18.6-38.1
	c6.3-18,20.8-24.7,38.7-26.4c30.5-3,60.5,18.1,70.2,41c8.3,14.8,36.7,21.4,51.7,27.3c9.6,5.2,16.5,13.4,24,21
	c6,6,12.4,11.5,19.4,16.4c26.5,18.8,56.7,26.5,88.7,27.1c36.3,0.6,72.6-0.2,108.9,0.3c14.2,0.2,28.6,0.9,42.4,3.8
	c25.7,5.3,51.7,6,77.6,4.8c14-0.7,28.2-3,41.6-8.6c25.3-10.6,49.2-23.4,69-42.2c21.7-20.6,40.7-43.6,51.7-71.8
	c2-5.2,3.3-11.1,1.2-17.2c-6.8-20.4-18.6-35.8-39.8-43.8c-12.3-4.7-25.3-5-37.9-7.9c-26.7-6.1-51.3-17.3-75.7-29.1
	c-25.6-12.6-53.6-19.2-82.1-19.3c-12.2,0-24,2.8-36,3.4c-29.1,1.4-58.3,2-86.8-6.9c-28.8-9-47.4-27.2-56.4-55.6
	c-5.2-16.4-8.9-32.8-9.3-50.1c-0.2-8.6-3.8-16.2-11.8-20.9c-10.5-6.3-22.2-8.9-34.2-9.9c-11.3-0.9-22.8,0.7-34.2-0.9
	c-15.1-2.1-28.2-8.9-41.6-15.5c-23-11.2-45.6-22.8-64.6-40.1c-45.5-41.4-67.8-93.2-70.2-153.7c-0.5-11.1-2.3-22.1-5.3-32.8
	c-8.4-30.3-26-54.9-47.4-77.2c-16-16.7-33.8-31.7-50.3-47.8c-24.4-23.7-37.9-52.5-33.9-87.9c2.2-19.2,11-32.8,27.1-42.7
	c10.5-6.5,22.4-8.2,34.2-10c14.1-2.2,28.5-1.9,42.4-0.6c16.4,1.6,32.8,4.8,49,8.6c27.7,6.5,55.6,12.1,83.2,19.8
	c41.5,11.6,79.2,33.1,120.8,44c19,5,55.3-5.8,60.9-9.1c11.3-6.6,21.5-14,29.7-24.4c7.9-10,15-20.5,22-31
	c13.1-19.8,29.7-36.5,47.8-52.1c13.2-11.4,25.8-23.7,33.4-39.8c3.8-8.1,5-16.3-1-23.6c-6.3-7.6-14.6-6.6-23-3.7
	c-8.3,2.9-17,4.9-25.8,5.7c-21.3,1.9-42.5,1.5-63.7,0.8c-22.7-0.8-33-7.7-39.5-29.2c-5.2-17.3-4.2-35.7-5.5-53.6
	c-1.6-22.2,2.1-44.3,3.5-66.4c0.5-8.2,1.9-12.9,1.8-16.4c-0.3-23.7,0.7-47.4-3.4-71c-3.2-18.2-7.2-36.1-13.2-53.6
	c-10.9-31.8-26.8-61-49.1-86.2c-16.8-19-32.7-38.4-45.9-60h-31.2c4,15.9,11.7,30.3,20.1,44.3c16.3,27.2,36.3,52.1,49.9,81
	c15.6,33.3,25.2,67.8,22.8,104.7c-1.2,18.5-6.3,36.5-10,54.6c-4.5,21.9-11.8,43.3-13.5,65.5c-2.2,27.9,9.4,52.7,24.8,75.3
	c8.1,11.9,17.4,23.2,29.3,32c16.2,12.1,34.9,18.1,54.5,21.8c5.9,1.1,12,2.3,16.6,6.4c8.3,7.4,12,18.1,3.4,29.7
	c-15.6,21.1-31.2,42.5-55.9,55c-4.6,2.3-10,4.8-13.1,9.8c-2.2,2.8-23.4,5.5-51.7-2.7c-35.8-10.4-72.3-18.4-108.1-28.9
	c-33.5-9.8-66.7-21.2-101.5-26.7c-29.6-4.7-58.8-7.4-87.8,4.4c-27.3,11.1-46.2,29.5-51.9,57.7c-3.3,16.2-1.3,33.5,4,49.9
	c13.6,42.3,35.8,78.8,70,108.5c22.8,19.9,42.5,43,53.7,71.6c4.9,12.5,7,25.7,8.6,39c4.5,35.9,6.7,72.3,23.7,105.6
	c17.8,35,42.2,64,75.7,85.6c15.4,10,32.3,17.6,49.9,22.6c14.1,4.5,43.6,4.1,53.5,12.7c21.2,18.6,37.4,39.5,46.4,66.3
	c10.5,31.2,33.6,51.7,63.5,64.5c31.1,13.3,64,19.8,97.8,22.1c27.4,1.9,54.8,5.2,82.2,7c15.4,1,30.8,2,46.1,3.9
	c37.3,4.7,74,11.8,107.1,30.8c19.8,11.3,24,24.3,16.8,45.6c-7.1,20.9-20.5,37.5-36.5,51.4c-18.4,16-38.5,30.5-64.3,34.2
	c-7.4,1.1-14.7,3.2-22.2,3.4c-34.8,0.8-69.5-1.7-104.3-2.1c-34.2-0.5-68.3-1.7-102.5-3.4c-36.6-1.8-69.4-13.7-98-37
	c-16.3-13.3-35-23.2-55.1-30.6c-3.4-1.1-6.8-1.7-10.3-2c-20.3-2.6-33.5-15.8-46-29.6c-10.5-11.5-21.8-21.8-36.2-28
	c-28.3-12.2-55.2-7.3-81.2,7.2c-12.5,7-23.2,16.2-33.2,26.4c-22.2,22.5-48.4,27.3-78.5,18.3c-34.5-10.4-66-26.7-97.1-44.4
	c-15.7-8.9-31.5-17.7-47.9-25.4v26.8c5.9,0.4,11,1.6,14,3.7C38.3,1305.8,62.5,1323.2,88.7,1337.8z"/>
<path class="st0" d="M836.6,1520.5c10.3-8.6,17.1-18.7,20.1-32.6c2.1-9.9,7.5-18.2,20.5-23.8c17.7-7.5,28.8-48.9,31.4-52.8
	c9.9-15,22.8-27.1,36-39.1c23.2-21.2,49.6-38.5,78.4-51.1c12.7-5.5,21.8-14.6,21.3-29.9c-0.3-9.6-5-17.1-12.1-22.6
	c-17.9-13.9-38.7-23-59-32.8c-55.6-27-108.6-58.1-156.9-96.5c-17.3-13.7-33-29.1-45.1-47.4c-6.8-10.2-10.4-22-9.3-34.5
	c0.9-10.1-3.8-17.1-12.1-21.7c-7.7-4.2-15.9-2.3-22.9,1.8c-8.5,5-16.6,10.7-24.1,17.1c-30.6,26.4-69.7,22.8-99.6-3.7
	c-6.5-5.8-7.2-14.3-5.3-21.7c3.1-11.9,2.4-24,1-35.5c-1.5-12.5-11.8-19.2-24.4-22c-14.1-3.3-28.9-2.4-42.5,2.8
	c-10.9,3.3-39.2,14.4-47.3,15.8s-14.1-1-19.1-2.5c-48.9-13.8-88.6-40.9-117.2-82.6c-30.5-44.3-42.3-95.7-55.3-146.5
	c-5.5-21.5-12.2-41.9-28.6-58.3c-12.8-12.8-23.6-27.3-33.4-42.6c-12.3-19.1-5.8-49.4,12.9-63c11.9-8.6,25.2-10.4,38.9-10.6
	c34.8-0.6,64.9,12.6,92.3,32.7c47.1,34.5,98.6,59.1,157,68.2c26.6,4.1,50.5,2.4,56.3-0.9c10.2-5.1,18.4-12.4,25.9-20.9
	c10-11.3,17.7-24,25.8-36.4c15.1-22.9,34.3-42.7,51-64.5c37-48.2,70.6-98.5,94.3-154.1c19.2-45.2,49.9-79.3,90.2-106.1
	c22.1-14.8,45-28.4,67.3-42.9c11.2-7.3,12.5-18.8,3.7-26.3c-3.7-3-8.2-4.8-13-5.3c-11-1.3-17-8.1-20-17.5c-0.8-2.5-1.7-5.5-2.5-8
	c-2.4-7.5-6.9-13.6-16.2-14.9c-8.6-1.2-12.8,4.5-16.3,9.5c-3.5,5.2-6.1,11-7.8,17c-2.9,10-4.8,20.4-9.2,30s-36.9,30.8-49.9,38.2
	c-8.9,5.5-17.9,10.8-26.8,16.4c-33.8,21.3-69.2,38.4-109.8,43c-12.1,1.4-21.2-1.2-27.7-11.2s-11.9-20.8-14.9-32.7
	c-6.4-25.2-9.9-51-14.5-76.5c-10.3-57.2-28.7-112.6-54.7-164.5c-9.7-19.4-19.2-38.9-31.2-57.1H464c5.2,6.1,8.6,13.4,13.2,19.9
	c17.6,24.8,37.8,47.6,53.8,73.5c19.1,30.8,32.8,64.7,40.6,100.1c6.3,28.7,9.1,58,8.1,87.3c-0.4,12.7-1.2,25.5-0.7,38.2
	c1.1,22.6,5.8,44.4,18.5,63.6c9.3,14.1,23.6,24.8,48,17c20.5-6.6,41.1-13.2,61.7-19.5c7.7-2.3,15.8-4.9,23.9-1.9
	c11.9,4.4,19.3,13.9,13,31.8c-5.4,15.4-14.7,28.7-24.1,41.8c-25.8,36.3-54.4,70.4-83.9,103.8c-13.7,15.5-24.5,33.1-38.8,48.2
	c-10.9,11.6-22.5,21.9-38.8,25.6c-8,2.5-42.1,20.3-59.1,13.5c-37.5-15-75-30.1-112.7-44.5c-34.5-13.2-69.2-26-106.1-31
	c-24.4-3.3-48.5-3.1-72,5.4c-17.1,6.2-33.5,28.2-33.3,43.7c0.3,21.6,9.5,39.2,23,55.6c12.1,14.7,26.2,27.6,39.3,41.4
	c17.4,18.3,26.8,40.1,34.8,63.1c9.2,26.4,12.9,54.2,20.4,80.9c22.4,79.7,70,135.5,154,156.6c7.4,1.8,14.5,4.3,22.2,4.5
	s42.1-12.7,56.3-8.2c26.2,8.3,42.1,28,49.1,54.5c0.6,2.4,0.8,4.9,0.7,7.3c-0.2,15.6,2.5,30.6,7.3,45.5c5.1,15.9,20.5,30.1,40.8,29.5
	c22.8-0.7,43.9-6.3,62.5-18c19.6-12.3,38.1-8,56.4-0.3c16.5,7,30.3,18.8,44.5,29.6c31.8,24.3,65.5,46.2,100.6,65.5
	c23.2,12.7,48.8,19.2,74.7,24.9c15.5,3.5,29.4,10.8,38.8,24.3c6.5,9.3,6.4,17.2-1,25.4c-5.2,5.8-11,11-17.5,15.4
	c-38.1,25.6-68.9,58.2-96.1,94.6c-16.5,22.1-37.5,38.4-65.5,44.6c-23.8,5.3-47.7,5.5-72,3c-36.1-3.7-69.8-15.9-104.5-25.2
	c-25.1-6.7-55.9,1-76.6,25.8c-7.4,8.8-12.2,18.8-16.6,29.2c-3,7.2-6.6,14.2-11.9,20.1c-11.4,12.6-22,16-38.7,6.3
	c-26.2-15.2-47.3-36.1-65.7-59.9c-11.8-15.3-22.4-31.4-33.2-47.4c-14.4-21.3-20.3-30.8-32.3-50c-9.3-14.9-18.2-29.8-33.2-40.1
	c-19.6-13.4-33.4-13.9-49,5.4c-13.5,16.7-19.8,36.1-23.9,56.5c-1.4,7.5-3.6,14.8-6.4,21.9c-5.8,13.9-17.4,18.6-31.4,19.1
	c-26.8,0.8-51.6-7.7-76.6-15.5c-21.6-6.8-42.1-16.7-64.6-21c-11.8-2.2-11.6-3-20.7,6.9c6.3,9.8,15.1,17.1,24.3,24.2
	c14,11,27.9,22.1,43.5,30.8c19.8,11,41.7,15.8,63.7,19.9c39.9,7.5,79.6,15.7,118.1,28.4c6.5,2.2,13.7,2.7,19.4,7.2
	c16.1,15.4,35.1,30.3,50.8,37.3c55.1,24.7,94,64,123,114.3h65.9c-19.1-13-25.6-20.6-23.8-33.6c2.2-15.8-18.1-30.3,19-34.2
	s51.3,0.9,73.6,11.4s41.9,5.1,50.5,20.2c6,10.5,12.3,24.2,10.8,36.2H757c2.9-19.6,10.2-37.9,19.8-55
	C792.6,1567.3,811.4,1541.4,836.6,1520.5z"/>
<path class="st0" d="M1640.8,1545.1c-4.5-13.4,2.4-22.9,16.6-23.8c15-0.8,28.9,3.1,42.4,8.4c11.4,4.5,22.6,9.7,35.1,8.9
	c23.5-1.4,46.9-4.1,70.2-8c29.3-5,57.8-12.4,83-28.4c21.3-13.5,37.9-28,33.3-58.1c-1.5-9.6-22.7-36.6-39.7-47.3
	c-28.8-15-51.2-36.8-65.3-65.6c-8.6-17.8-11.1-37.9-18.7-56.3c-15-36.7-36.2-67.4-75.8-81.9c-16.9-6.1-34.2-10.9-51.8-14.3
	c-5.4-1.1-10.4-1.6-11-8.3s4.3-9,9.2-10.8c5.6-2.1,11.6-2,17.5-1.9c38.6,0.2,74.8-9,107.9-28.3c45.8-26.9,86.9-60.9,121.9-100.9
	c26.9-30.5,50.7-63.2,66.6-100.9c12.1-28.7,17.6-57.4,3.9-87.4c-8.4-18.3-19.9-32.6-38.9-41c-13.1-5.8-27.1-6.9-40.7-9.6
	c-33.9-6.7-64.9-20.7-96-34.8c-22.9-10.4-44.3-23.7-66.6-35.3c-31.6-16.5-65.9-27.1-98.7-41.1c-8.8-3.8-28.9-20.4-36.9-38.2
	c-0.1-1.3-0.4-2.5-0.8-3.7c-14.8-33.8-31.5-66.6-53.7-96.3c-12.5-16.8-25-33.7-32.9-52.9c-15.3-36.9-21-75.8-21.5-115.4
	c-0.3-30.2,2.4-60.4,8.1-90.1c4.9-26.3,4.8-53.3,5.4-80c0.5-20.9-1.5-41.9-3.6-62.7c-1-9.4-2.6-18.8-4.3-28.2
	c-3-16.3-7.1-32.4-12.2-48.2c-3.7-11.8-5.7-24-10.8-35.6c-7.5-17.4-30.6-21.6-41.9-4.5c-5.6,8.3-10.2,17.1-13.8,26.5
	c-10.7,28.6-19.9,57.8-35,84.6c-12.3,21.8-26.5,41.8-49,54.5c-12.1,6.8-24.8,8.6-37.8,1.9c-7.9-4-12.5-10.9-16.6-18.2
	c-10.5-19.1-9-39.8-6.3-60c5.6-41.4,24.7-77.4,47.6-111.7h-90.1c4,17.2,6.1,34.8,6.1,52.5c-0.1,39.5,1.9,79,5.9,118.2
	c2,19.7,3.7,39.8,12.6,58.3c8.5,17.6,21.6,29.5,41.6,31.6c12.4,1.3,23.6-4,33.2-11.7c13.1-10.4,25.9-21.1,38.8-31.8
	c6.2-5.1,13-9.9,20.4-12.4c12.7-4.4,28,1.9,34.2,11.4c8.3,12.5,13.6,26.2,18.2,40.2c11.6,34.8,13.9,71,14.9,107.3
	c0.6,22.5,2.9,44.9,5.4,67.3c2.3,20.4,3.8,41.1,9.4,60.9c14.4,50.4,36.6,97.5,64.6,141.9c7.5,11.9,14.3,24.3,23,35.5
	c14.9,19.8,24.7,29.4,37.8,40.9c19.1,16.7,40.8,27.5,62.9,37.9c55.6,26.3,112.3,50.2,171.5,67.9c23.3,7,47.2,12.9,69.4,23.3
	c13.6,6.4,27.3,13.5,36.5,25c9.4,11.8,11.4,26.7,10,42.4c-2,22.3-16.4,37.8-28.3,54.4c-21.1,29.5-49.4,52.1-78.3,73.8
	c-27.9,21-57.3,40.1-87.8,57.1c-30.7,16.9-61.7,33.5-94,47.7c-17.3,7.6-31.3,18.8-40.7,35.4c-6.6,11.7-4.7,18.8,7.4,25.5
	c9.9,5.5,21.1,8.1,31.5,12.6c12.9,5.6,17.7,15.4,17.4,28.3c-0.9,39.9,10.8,76,34.3,108.2c14.8,20.3,34.4,34.7,59,41.9
	c13.2,3.9,27.2,3.8,40.6,6.4c9.8,1.5,40.9,25.3,52.6,43.7c6.1,8.5,8.2,18.6,10.8,28.3c4,14.4-4.2,28.4-17.3,31.7
	c-12,3.1-24.1,2.3-36-0.9c-14.7-4-27.9-11.1-40.6-19.1c-15.8-9.9-32.6-16.9-51.7-14.4c-12.9,1.7-25.4,3.9-38.8,2
	c-29.5-4.1-50.2-18.2-60.9-45.8c-5.7-14.7-7.1-30.4-10.9-45.5c-4.3-17.3-9.7-33.7-20.5-48.2c-4.3-5.8-9.4-8.3-16.7-8.2
	c-17.5,0.1-33.4,5.6-46.2,16.5c-9.9,8.4-30.3,31.9-32.3,58.2c-1.7,21.3,2.8,42.6,8.8,62.6c14.8,49.2-11.1,86.1-51.2,101.1
	c-19,7.1-38.6,11.2-59,13.2c-17.5,1.8-34.6,0.7-51.7-0.7c-11.1-0.9-22-4.2-33.2-3.4c-17.3,1.2-34.1,5.2-47.8,15.7
	c-13.5,10.3-20.1,25.7-25.1,41.6c-2.5,7.9-3.3,16-4.1,24.2h380.6c15.8-18.6,23-40.6,24.3-65.1
	C1650.9,1570.8,1645.2,1558.2,1640.8,1545.1z"/>
<path class="st0" d="M954.8,1614.3c-4.6-18.1-12.7-34.4-22.8-50.2c-11.2-17.5-15.6-36.8-9.8-58.1c7-26.2,23.9-43.5,49.2-49.1
	c12.4-2.7,55.5-4.3,60.9-4.6c17.8-1.1,35.7,0.4,53.6,0.1c6.2-0.1,11.2-1.1,12-8.3c0.8-7.5-4.2-10.8-10.2-11.6c-11-1.4-22-3.6-33.2-4
	c-8.9-0.3-17.9-1.5-26.8-2.7c-10.8-1.3-21.5-3.3-32.3-4.4c-8.9-0.9-17.6-2.2-25.8-5.6c-13.1-5.3-18.5-18.5-12-30
	c3.3-5.7,8.4-10.1,13.8-13.6c20.2-12.9,40.4-25.7,60.7-38.5c19.9-12.6,41.1-23.3,60-37.2c16.1-11.8,13.6-30-4.5-39
	c-8.5-4.2-17.4-7.6-25-13.6c-18.4-14.7-40.2-21.9-62.8-27.3c-16.9-4.1-33.6-8.5-49.8-14.7c-22.3-8.5-37.9-24.6-52-43.4
	c-21.6-28.9-44.7-56.8-71.8-81.1c-10.6-9.5-20.5-19.2-28-31.7c-11-18.2-15-37.7-15.5-58.4c-0.3-14.7,2.1-29.1,8.7-41.7
	c14.7-28,35.5-51.5,60.6-71.1c10.8-8.4,19.3-18.7,26.9-29.9c4.1-6,5.2-12.4,1.5-18.1c-4.2-6.5-11.7-8.2-19.2-7.3
	c-12.8,1.5-24.7,6.7-34.9,13.8c-31.9,21.8-54.1,51.8-70.3,86.2c-13.4,28.8-30.2,55.2-54.2,76.6c-8.5,7.5-17.6,13.7-28,17.7
	c-3.4,1.3-7.5,3.2-13,0.8c-12.7-5.7-17.5-10.4-17.3-24.1c0.2-14.5-0.3-28.8-5.5-42.8c-4.7-12.7-12.5-22.8-26-24.1
	c-20.8-1.9-39.3,4.3-60.1,11.6c-12.4,4.4-46.3,10-55.3,12.5c-18.4,6.4-36.4,6.3-54.5-1.7c-27.2-12-39.7-35.3-47.7-61.1
	c-11.1-35.9-20.5-72.1-36.7-106.6c-17.4-37-39.9-69.3-70.7-96.1c-7.1-6.1-13.3-13-17.2-21.1c-4.2-8.7-9-18.5-6.4-28
	c6-21.7,27.9-28.4,45.1-19.5c12.1,6.3,23.7,13.4,34.9,21.2c36.5,25.2,73.1,50.2,113.6,69.1c28.9,13.5,59.6,19.5,91.4,22.8
	c33.5,3.5,54.3,6.5,60.9,4.5c22-6,40-17.2,52.7-36.3c8-12.1,16.1-24.2,24-36.4c24.9-38.6,60.5-66.2,97.9-91.8
	c21.4-14.8,44.1-27.7,60.2-49c11.3-15,21.1-29.8,22.2-49.3c1.2-21.2-0.2-42.5,0.8-63.7c0.9-17.8,5.3-34.4,15.6-50
	c5.8-8.9,30.5-28.9,45.2-39.1s32.7-11.2,49.9-12.5c18.8-1.4,37.6,0.3,56.3,2.3c10.7,1.1,20-2,26-12.5c4.3-7.5,7.5-15.5,9.7-23.8
	c2.2-8.1-1.7-15.8-7.2-21.7c-11.6-12.2-25.6-21.2-41.4-27.5c-28.4-11.3-51.7-28.8-65.3-56.4c-5-10.2-7.7-21.5-13.1-31.8
	c-10.6-19.9-27-25.4-47.1-15.4c-16.9,9.1-30,23.9-36.9,41.8c-5,12.3-9.8,24.7-19.3,34.6c-16,16.5-40.6,27.5-67.5,19.4
	c-26.1-7.9-45.8-23.8-63.7-43c-26.5-28.4-42.8-63-60.8-96.6c-12.9-24-24.8-48.6-38.1-72.5h-77.3c12,18.2,21.5,37.7,31.2,57.1
	c26,52,44.4,107.4,54.7,164.6c4.6,25.5,8.1,51.3,14.5,76.5c3,11.9,8.3,22.5,14.9,32.7s15.6,12.6,27.7,11.2
	c40.7-4.6,76-21.7,109.8-43c8.8-5.6,17.8-10.9,26.8-16.4c13-7.5,45.5-28.6,49.9-38.2s6.2-20,9.2-30c1.7-6,4.3-11.8,7.8-17
	c3.5-5,7.7-10.7,16.3-9.5c9.4,1.3,13.8,7.3,16.2,14.9c0.8,2.5,1.6,5.5,2.5,8c3.1,9.4,9,16.2,20,17.5c4.7,0.5,9.2,2.3,12.9,5.3
	c8.8,7.5,7.5,18.9-3.7,26.3c-22.3,14.6-45.2,28.2-67.3,42.9c-40.2,26.9-70.9,60.9-90.2,106.1c-23.7,55.6-57.3,106-94.3,154.1
	c-16.7,21.7-35.9,41.5-51,64.5c-8.2,12.5-15.9,25.2-25.8,36.4c-7.5,8.5-15.8,15.7-25.9,20.9c-5.8,3.3-29.7,5-56.3,0.9
	c-58.4-9.1-109.9-33.7-157-68.2c-27.4-20-57.5-33.2-92.3-32.7c-13.7,0.2-27,2-38.9,10.6c-18.7,13.6-25.2,43.8-12.9,63
	c9.8,15.2,20.6,29.8,33.4,42.6c16.5,16.4,23.1,36.8,28.6,58.3c13,50.8,24.9,102.2,55.3,146.5c28.6,41.7,68.3,68.8,117.2,82.6
	c5,1.4,11,3.9,19.1,2.5s36.5-12.8,47.4-16c13.6-5.1,28.4-6.1,42.5-2.7c12.5,2.8,22.9,9.4,24.4,22c1.4,11.5,2,23.6-1,35.5
	c-1.9,7.4-1.3,15.9,5.3,21.7c29.9,26.4,69,30,99.6,3.7c7.5-6.4,15.6-12.1,24.1-17.1c7.1-4.1,15.2-6.1,22.9-1.8
	c8.3,4.6,13,11.7,12.1,21.7c-1.1,12.5,2.5,24.2,9.3,34.5c12.1,18.3,27.8,33.7,45.1,47.4c48.4,38.4,101.3,69.5,156.9,96.5
	c20.3,9.8,41.1,18.9,59,32.8c7.1,5.6,11.8,13.1,12.1,22.6c0.5,15.3-8.7,24.3-21.3,29.9c-28.8,12.6-55.3,29.9-78.4,51.1
	c-13.2,12-26.1,24.1-36,39.1c-2.5,3.8-13.7,45.2-31.4,52.8c-13.1,5.6-18.4,13.9-20.5,23.8c-3,13.9-9.8,24-20.1,32.6
	c-25.2,20.9-44,46.8-59.8,74.7c-9.7,17.2-17,35.4-19.8,55h200.6C957.6,1638.2,957.8,1626.2,954.8,1614.3z"/>
<path class="st0" d="M1274.4,1584.5c13.7-10.5,30.5-14.6,47.8-15.7c11.3-0.8,22.2,2.5,33.2,3.4c17.2,1.4,34.3,2.5,51.7,0.7
	c20.4-2.1,40-6.2,59-13.2c40.2-15,66-51.9,51.2-101.1c-6-20.1-10.4-41.3-8.8-62.6c2-26.3,22.5-49.8,32.3-58.2
	c12.7-10.9,28.7-16.4,46.2-16.5c7.3-0.1,12.4,2.5,16.7,8.2c10.8,14.5,16.2,31,20.5,48.2c3.8,15.2,5.2,30.9,10.9,45.5
	c10.7,27.6,31.4,41.7,60.9,45.8c13.4,1.9,25.9-0.3,38.8-2c19.1-2.5,35.9,4.5,51.7,14.4c12.8,8,25.9,15.1,40.6,19.1
	c11.9,3.2,24,3.9,36,0.9c13.1-3.3,21.3-17.3,17.3-31.7c-2.7-9.6-4.8-19.8-10.8-28.3c-11.7-18.3-42.8-42.2-52.6-43.7
	c-13.5-2.6-27.4-2.5-40.6-6.4c-24.6-7.2-44.2-21.6-59-41.9c-23.5-32.2-35.2-68.3-34.3-108.2c0.3-13-4.5-22.8-17.4-28.3
	c-10.4-4.5-21.5-7.1-31.5-12.6c-12.1-6.7-14-13.9-7.4-25.5c9.4-16.6,23.4-27.8,40.7-35.4c32.2-14.1,63.3-30.7,94-47.7
	c30.6-17,59.9-36,87.8-57.1c28.9-21.7,57.2-44.3,78.3-73.8c11.8-16.6,26.3-32.1,28.3-54.4c1.4-15.7-0.6-30.7-10-42.4
	c-9.2-11.4-22.9-18.6-36.5-25c-22.2-10.4-46.1-16.3-69.4-23.3c-59.2-17.8-115.9-41.6-171.5-67.9c-22.1-10.5-43.9-21.3-62.9-37.9
	c-13.2-11.5-23-21.2-37.8-40.9c-8.7-11.2-15.5-23.6-23-35.5c-27.9-44.5-50.2-91.5-64.6-141.9c-5.7-19.8-7.1-40.5-9.4-60.9
	c-2.5-22.4-4.8-44.8-5.4-67.3c-1-36.3-3.4-72.5-14.9-107.3c-4.6-13.9-9.9-27.6-18.2-40.2c-6.3-9.5-21.5-15.8-34.2-11.4
	c-7.4,2.6-14.2,7.3-20.4,12.4c-12.9,10.6-25.7,21.4-38.8,31.8c-9.6,7.7-20.7,12.9-33.2,11.7c-20-2.1-33.2-14-41.6-31.6
	c-8.9-18.5-10.6-38.6-12.6-58.3c-4-39.3-6-78.8-5.9-118.2c0-17.7-2.1-35.3-6.1-52.5h-71.2c30.4,39.3,48.2,84,57.2,132.6
	c6.5,35.2,8.9,70.7,9.2,106.4c0.1,18.2-0.5,36.4,0.1,54.6c1.1,31.6,13.7,42.9,40.5,45.2c14.3,1.2,28.4-3.3,40.4-10.9
	c14.3-8.9,28.5-17.9,43.6-25.1c24.8-11.8,40.1,0.7,46.9,19c11.4,30.5,16.6,62.4,20.6,94.5c3.6,28.4,5.2,56.9,4.8,85.5
	c-0.4,29.8,4.3,58.1,15.3,85.5c9.5,23.8,23,45.3,38.8,65.5c15.2,19.2,32.1,36.9,50.7,52.8c14.7,13.9,27.7,28.4,40.6,36.4
	c20.6,12.8,41.1,25.7,61.9,38.2c37.4,22.7,77,41.5,118.2,56.3c15,5.3,30.7,8.9,46.1,12.8c21.1,5.4,40.2,14.6,53.3,32.1
	c9.3,12.5,11.8,27.7,10.5,43.5c-2.8,35.2-23.1,62-43.8,88c-28.1,35.4-66.9,56.5-108.6,73.1c-24.1,9.6-49.2,17.1-71.3,31.5
	c-16.7,10.9-32.1,22.9-43.2,39.3c-16,23.6-15.5,58.5,10,76.5c13.7,9.7,14.1,28.5,2.8,37c-6.2,4.7-14.2,6-22,5.6
	c-19.7-1.2-39.4,2.6-57.3,10.8c-5.2,2.4-9.8,5.6-14.7,8.4s-47.9,19.3-57.2,24.6c-26.3,14.7-47.9,36.6-62.4,63
	c-7.7,14.2-11.4,29.9-8.3,47.2c2.3,13.2,4.3,27.1,1.5,40.9c-2.4,12-0.2,24.3-2.6,36.4c-1.5,7.6-2.6,15.3-5,22.7
	c-3.9,12.3-14.4,16.7-25.8,19c-11.9,2.4-24,3.9-36,5.5c-4.2,0.6-8.8,1-12.9-0.1c-20.1-5-37.7,1.7-54.5,11.1
	c-19.8,11.1-30.7,28.9-37,50c-3.1,11.6-5.6,23.3-7.5,35.1h33.8c0.8-8.2,1.7-16.3,4.1-24.2C1254.3,1610.3,1261,1594.8,1274.4,1584.5z
	"/>
<path class="st0" d="M1051,1596.9c-11-18.3-27.8-30.3-44.4-42.7c-8.5-6.4-17.5-12.3-24.9-20c-6.9-7.2-9.6-15.8-6.4-25.4
	c3.8-11.4,13.6-15,28.5-11.9c17.9,3.8,34.5,11.6,51.7,17.2c41.9,13.6,84.7,29.6,129.2,20.2c18.4-3.9,50.8-33.5,38.8-50.9
	c-3.1-4.6-6.1-9.1-9.2-13.6c-17.2-24.7-39.5-43.8-67.5-55.3c-28.5-11.7-59.6-12.6-89.5-18.3c-11.1-2.1-22.5-2.9-32.2-9.2
	c-5.8-3.8-6.5-8.9-1.8-13.5c5-5,11.2-8.5,17.5-11.9c18.8-10.3,39.6-10.8,60.1-11.5c25.6-0.9,39.7-15.9,50.8-35.8
	c2.9-5.3,1.9-10.7,1-16.4c-3.9-24-17.6-42.1-35.1-58.3c-34.9-32.1-78.9-42.8-123.8-50.6c-17.1-3-33.9-6-48.8-14.9
	c-20.4-12.2-37.5-27.6-45.3-50.9c-3.5-10.6-3.7-21.9-6.3-32.8c-6.5-26.2-19-47.8-44.5-59.9c-8.5-4-18-5.7-26.7-9.3
	c-23.3-9.8-24.3-11.7-25.7-32.7c-0.3-4.2-0.1-8.5,0.9-12.7c2.2-8.8,3.8-18.3,13.7-22.8c40.2-18,66.7-12.2,97.9-24.1
	s55-53.9,102.5-50.5s197.9,49.6,219.4,58.7s182.2,63,197,30s7.3-73.8-12.6-101.7s-50.9-80.6-61.3-112.7s-24.8-106.2-24.9-130.8
	c-0.2-15.5-4-30.8-11.1-44.6c-9.9-19.5-23.8-21.5-39.3-10.4c-38.1,27.4-61.9,63.6-62.5,112.3c-0.3,24.5-1.6,49.3-17.9,70.3
	c-2.2,2.8-5.8,5-6.8,8.9c-5.2,7.1-15.4,17.4-49.9,40c-20.6,13.6-47.3,15-71.2,21.6c-10,2.8-20.1,7.5-31.4,3.1
	c-11.6-4.6-17.5-14-13.7-25.6c5.3-16.3,9-32.7,8.5-50.1c-0.3-9.4-8.3-17.1-17.8-17.6c-30.6-1.6-58.3,6.5-84,22.1
	c-27.5,16.7-56.6,28.2-89.5,28.3c-14.4,0-28.6,1.8-41.6,9c-19.6,10.7-36.2,24.5-48.1,43.7c-16.8,27.3-36.8,51.5-64.3,69.5
	c-14.9,9.7-31.3,6.3-41.7-3c-11.3-10.1-24.1-16.7-39.7-18.4c-13.9-1.6-25.9,2.6-37.9,8.4c-10.1,4.4-48.1,15.4-56.3,19.1
	c-15.1,6.7-30.1,3.2-45.2,0.1s-22.9-10.1-24.8-24.6c-1.3-10.3-2.1-20.7-3.9-30.9c-4.5-26.3-13.4-50.9-29.4-72.9
	c-9.3-12.8-20.5-24.4-26.8-39.1c-2.2-5.1-2.3-10.3,2.6-14.6c4.7-4.1,9.4-4.5,14.8-1.8c9.5,4.7,18,11,27.6,15.6
	c30.7,14.4,63.8,22,96,31.9c10.2,3.1,20.5,5.1,30.5,9.9c15,7.2,47.2,0.8,61.9-0.9c30.8-3.9,60.5-14.5,86.8-31
	c15.5-9.7,25.2-21.4,24.5-41.8c-2.3-59.6,34.5-113.7,93.8-140c39.3-17.4,81-28.3,122.8-38.3c22.7-5.4,37.2-22.6,37.8-45.5
	c0.5-17-12.2-34.3-29.6-40c-4.4-1.3-8.7-2.8-12.9-4.6c-11.5-5.1-23.3-11.1-24.5-24.6c-1-11.3-0.6-23.4,6.9-33.6
	c11-14.9,39.6-29.3,53.5-30c29-1.4,54.6,6.1,80.4,17.1c30.1,12.8,40.7,9.2,55.5-21.5c4.8-10.1,7.8-20.9,8.8-32
	c2.9-29.4-2-58.2-10.1-86.4c-8.9-31-28.4-53.7-57.9-68.5c-14-7-28.3-13.4-41.7-21.5c-18.2-10.9-30.7-25.9-37.9-45.6
	c-8.2-22.3-15-20.4-36.9-20.7c-13-0.2-25.3,4.9-37.8,8c-15,4.2-39.8,11.7-73.9,9.2c-16.7-1.7-32.3-7.3-48-12.8
	c-38.2-13.4-71.5-33.8-97-65.5c-3-3.7-5.3-7.9-8.2-11.6h-61c13.3,23.9,25.2,48.4,38.1,72.5c18,33.5,34.3,68.1,60.8,96.6
	c17.9,19.2,37.6,35,63.7,43c26.9,8.2,51.5-2.8,67.5-19.4c9.6-9.9,14.4-22.3,19.3-34.6c6.9-17.9,20-32.8,36.9-41.8
	c20.1-10,36.6-4.5,47.1,15.4c5.4,10.2,8.1,21.5,13.1,31.8c13.6,27.6,36.9,45.2,65.3,56.4c15.8,6.3,29.8,15.2,41.4,27.5
	c5.6,5.9,9.4,13.5,7.2,21.7c-2.2,8.3-5.5,16.3-9.7,23.8c-6,10.5-15.3,13.6-26,12.5c-18.8-2-37.6-3.7-56.3-2.3
	c-17.2,1.3-35.2,2.4-49.9,12.5s-39.5,30.3-45.2,39.1c-10.2,15.7-14.7,32.2-15.6,50c-1.1,21.2,0.3,42.4-0.8,63.7
	c-1.1,19.5-10.9,34.3-22.2,49.3c-16.1,21.4-38.8,34.3-60.2,49c-37.3,25.7-73,53.2-97.9,91.8c-7.9,12.2-15.9,24.3-24,36.4
	c-12.7,19.1-30.8,30.4-52.7,36.3c-6.6,2-27.5-1-60.9-4.5c-31.8-3.3-62.5-9.3-91.4-22.8c-40.5-18.8-77.1-43.9-113.6-69.1
	c-11.2-7.8-22.9-14.9-34.9-21.2c-17.1-9-39.1-2.3-45.1,19.5c-2.6,9.5,2.2,19.3,6.4,28c3.9,8.1,10.1,15,17.2,21.1
	c30.8,26.9,53.3,59.2,70.7,96.2c16.2,34.5,25.6,70.7,36.7,106.6c8,25.8,20.5,49.1,47.7,61.1c18.1,8,36.1,8.1,54.5,1.7
	c9-2.5,42.9-8.2,55.3-12.5c20.8-7.3,39.3-13.5,60.1-11.6c13.5,1.3,21.4,11.5,26,24.1c5.1,14,5.7,28.3,5.5,42.8
	c-0.2,13.7,4.6,18.4,17.3,24.1c5.5,2.4,9.5,0.6,13-0.8c10.3-4,19.5-10.2,28-17.7c24-21.5,40.8-47.8,54.4-76.5
	c16.2-34.4,38.3-64.4,70.3-86.2c10.3-7,22.1-12.2,34.9-13.8c7.4-0.9,15,0.8,19.2,7.3c3.7,5.7,2.5,12.1-1.5,18.1
	c-7.6,11.3-16.1,21.5-26.9,29.9c-25.2,19.6-45.9,43.1-60.6,71.1c-6.6,12.6-9.1,27-8.7,41.7c0.5,20.7,4.5,40.1,15.5,58.4
	c7.5,12.4,17.4,22.2,28,31.7c27,24.4,50.2,52.2,71.8,81.1c14,18.8,29.7,34.9,52,43.4c16.2,6.2,33,10.6,49.8,14.7
	c22.5,5.4,44.4,12.6,62.8,27.3c7.5,6,16.5,9.4,25,13.6c18.1,8.9,20.6,27.2,4.5,39c-19,13.9-40.1,24.6-60,37.2
	c-20.3,12.8-40.5,25.6-60.7,38.5c-5.5,3.5-10.6,7.9-13.8,13.6c-6.5,11.4-1.2,24.6,12,30c8.2,3.4,17,4.7,25.8,5.6
	c10.8,1.1,21.5,3.1,32.3,4.4c8.9,1.1,17.8,2.3,26.8,2.7c11.2,0.4,22.2,2.5,33.2,4c6,0.8,11,4.2,10.2,11.6c-0.8,7.2-5.8,8.2-12,8.3
	c-17.8,0.3-35.7-1.2-53.6-0.1c-5.4,0.3-48.5,1.8-60.9,4.6c-25.3,5.5-42.2,22.9-49.2,49.1c-5.8,21.3-1.4,40.6,9.8,58.1
	c10.2,15.8,18.3,32.1,22.8,50.2c3,11.9,2.7,24,2.7,36h109.3c-0.2-4.8-1.4-9.5-2.2-14.2C1062.2,1622.4,1058.4,1609.2,1051,1596.9z
	 M1206.1,843.6c1.5-15.5,41.7-59.3,49-73.1s7.5-57.1,9.7-69.5s13.1-44.2,26.7-41.2c13.4,3,16.7,92.9,25,121.6s17.8,59,23.2,72.1
	s21.1,42.5,10.4,52.2s-56-18.2-68.3-24.9s-32.4-15.8-43-16.1S1204.5,859.1,1206.1,843.6L1206.1,843.6z"/>
<path class="st0" d="M1167.1,1611.5c2.2-7.4,15.8-7.1,29.6-14.5c8.4-8.7,18.1-16.4,24-27.3c9.8-17.9,25.5-27.3,45.2-32
	c18.2-4.1,34.2-15.1,44.3-30.8c26.6-40.2,29.7-83.3,15.6-128.2c-5.1-16.1-10.8-31.9-8.1-49.2c1.5-9.9,3.9-19.2,14.7-23.7
	c10.5-4.5,18.3,0.7,25.8,6.5c9.7,7.4,22.2,15.5,32.4,8.1c14.8-10.7,16.5-31.2,26-35.2s22-6.6,22-6.6c10.8-3.3,21.5-7,32.3-10
	c42.7-11.7,70.8-36.8,79.5-81c4.5-22.7,12.6-44.2,25.7-63.7c30.7-45.8,74.9-72.9,126.5-90.1c15.8-5.2,32.5-7.3,48-13.6
	c21.2-8.5,27.7-24.8,17.5-44.6c-13.1-25.6-33.6-44.4-57.3-59.9c-27.5-18-55.3-35.6-82.3-54.3c-27.8-19.2-55.7-38.3-84.7-55.9
	c-15.7-9.5-34.8-21.8-56.3-37.3c-18.7-14.2-36.7-29.1-52.8-46.3c-26-27.8-45.3-59.1-55.1-95.7c-5.7-21.2-6-42.7-3.2-64.6
	c1.6-12.8,4.6-25.4,5.7-38.2c1.2-14.9,3.2-29.6,4.3-44.5c2.7-36.6,2.3-73-4.1-109.2c-1.7-9.4-5.5-17.6-15.7-20.9
	c-10-3.3-17.8,0.7-24.9,7.2c-4.4,4.1-9.3,7.5-14.7,10.2c-18,8.9-37.1,10.1-56.4,8.7c-11.8-1-23.2-4.6-33.3-10.5
	c-20.9-12-31.7-30.6-37.9-52.9c-5.2-18.5-9-37.3-11.2-56.4c-2-17.7-6.3-35.1-8.9-52.8c-4-27.5-9.3-54.8-15.8-81.8
	c-6.8-28-15.1-55.5-26.9-81.8c-6-13.3-11.4-27-20.2-39H983.5c-4.6,2.7-9,5.8-13.8,8.2c-14.2,7.4-29,11.9-44.5,15.2
	c-18.4,4.7-52.7,4.7-72.9,4.6c-19.3-0.1-37.2-5.5-54.5-13.6c-8.5-4-16.1-9.4-23.8-14.4h-40.6c21.2,20.2,47.4,32.4,74.7,42.5
	c18.4,6.8,37.1,12.4,56.2,16.8c4.3,0.9,8.6,1.4,13,1.6c33.3,0.8,53.3-1.6,60.9-8.2c26.7-25.4,64.5-35.1,99.9-14
	c67.6,40.1,98.7,100.6,105.6,175.1c3.1,33.1,3.9,66.4,9.8,99.1c3.2,17.9,7.2,35.9,16.5,51.8c18.3,31.4,49.8,38.5,83,41.9
	c13.9,1.4,27.6-2.6,41.6-1.9c12.4,0.7,18,8.5,13.9,20.1c-2.4,6.8-6.9,12.5-13,16.4c-27.6,18.1-57.8,18.1-88.6,11.7
	c-21.6-4.5-41.1-14.4-61-23.5c-34.2-15.5-69.9-24.5-108-25.6c-14.1-0.4-49.7-0.5-55.4,7.3c-12.7,17.4-5.7,26.2,3.7,38.2
	c4.8,6.1,10.7,11.4,15.5,17.5c18.9,23.6,16.7,61.9-17.4,79.9c-19,10.1-39.5,15.9-60.9,18.2c-34.3,3.7-63.8,16.9-87.8,41.8
	c-10.7,11.1-22,21.5-30.5,34.6c-11.4,17.6-15.3,37-15.5,57.4c-0.1,9.9,9.2,19,19.3,21c19.2,3.7,37.9,0.5,56.3-4.7
	c19.6-5.5,37.7-14.8,56.4-22.6c41-17.2,79.6-38.6,117.2-61.9c22.3-13.7,45.9-21.8,58.2-31.8s22.4-22.3,35.1-31.9
	c23.3-17.7,48.8-31,77.6-38.3c16.1-4,32.4-6,48.9-7.8c14-1.5,26.5,0.1,38.8,5.3c23.3,9.8,34.9,29.1,42.7,51.7
	c5,14.6,6,29.7,8.2,44.6c2.5,17,29.5,92.8,32.3,100.1s59,89.1,102.6,122.2c25.5,19.4,60.8,51.1,78.3,85.1
	c12.4,24.1,13.2,51.8,7.4,65.9c-13.9,34-59.2,54-133.5,60.8s-204.7-42.8-216.8-46.6s-41.9-6.5-66.9,0s-84.3,18.1-105.5,15.6
	s-49.8-7.5-68.9-6.6s-35.3,19.3-44.8,38.6s-10.8,48.7-5.2,68.9c2.7,6.7,5.7,13,11,18.3c12.6,12.5,28.8,16.9,45.3,20.8
	c14.6,3.4,29.6,2.2,44.3,4c39.2,4.8,73.7,19.8,100.8,49.6c23,25.3,52.7,41.4,83.9,54.6c22.3,9.4,30.9,24.8,21.3,49.3
	c-5.7,14.6-12.4,28.8-19.9,42.5c-9.9,18.1,7.3,40.6,24.4,40.5c8-0.1,16.7-0.4,23.9,3.6c12.9,7.1,18,24.7,14.1,40.8
	c-4.3,17.5-12,33.3-20.4,49.1c-7.6,14.3-22.3,29.1-37.8,44.6c-12.9,12.9-29.3,19.7-48,22.1c-10.8,1.6-21.4,4.4-31.6,8.3
	c-16,5.9-19.3,17.7-18,33.2c1.2,12.9,4.5,25.5,9.8,37.3c-5.3-11.8-8.6-24.4-9.8-37.3c-1.4-15.5,2-27.2,18-33.2
	c10.2-4,20.8-6.8,31.6-8.3c18.6-2.5,35-9.2,48-22.1c15.5-15.5,30.2-30.3,37.8-44.6c8.4-15.8,16.2-31.6,20.4-49.1
	c3.9-16.1-1.2-33.7-14.1-40.8c-7.2-3.9-15.9-3.6-23.9-3.6c-17.1,0.1-34.3-22.4-24.4-40.5c7.5-13.7,14.2-27.9,19.9-42.5
	c9.5-24.4,0.9-39.9-21.3-49.3c-31.3-13.2-60.9-29.3-83.9-54.6c-27.1-29.8-61.5-44.8-100.8-49.6c-14.6-1.8-29.7-0.6-44.3-4
	c-16.5-3.9-32.8-8.3-45.3-20.8c-5.3-5.3-8.4-11.6-11-18.3c-5.5-20.2-4.3-49.7,5.2-68.9s25.7-37.7,44.8-38.6s47.8,4.1,68.9,6.6
	c21.2,2.5,80.6-9.1,105.5-15.6s54.8-3.8,66.9,0s142.4,53.4,216.8,46.6s119.6-26.9,133.5-60.8c5.8-14.1,5-41.8-7.4-65.9
	c-17.5-34-52.8-65.7-78.3-85.1c-43.6-33.2-99.8-114.9-102.6-122.2s-29.8-83-32.3-100.1c-2.2-15-3.2-30.1-8.2-44.6
	c-7.8-22.6-19.3-41.9-42.7-51.7c-12.3-5.2-24.8-6.8-38.8-5.3c-16.5,1.8-32.8,3.8-48.9,7.8c-28.7,7.2-54.2,20.5-77.6,38.3
	c-12.7,9.6-22.8,21.8-35.1,31.9s-35.9,18.2-58.2,31.8c-37.7,23.2-76.3,44.7-117.2,61.9c-18.7,7.8-36.8,17.1-56.4,22.6
	c-18.4,5.2-37.1,8.3-56.3,4.7c-10.1-1.9-19.3-11.1-19.3-21c0.2-20.3,4.1-39.8,15.5-57.4c8.5-13,19.8-23.5,30.5-34.6
	c23.9-24.9,53.5-38.1,87.8-41.8c21.4-2.3,41.9-8.1,60.9-18.2c34.1-18,36.3-56.3,17.4-79.9c-4.8-6-10.7-11.3-15.5-17.5
	c-9.4-12-16.5-20.8-3.7-38.2c5.7-7.8,41.3-7.7,55.4-7.3c38.1,1.1,73.8,10.1,108,25.6c19.9,9,39.4,19,61,23.5
	c30.8,6.4,61,6.3,88.6-11.7c6.1-3.8,10.6-9.6,13-16.4c4.1-11.6-1.5-19.5-13.9-20.1c-14-0.7-27.6,3.3-41.6,1.9
	c-33.2-3.4-64.6-10.5-83-41.9c-9.3-15.9-13.3-34-16.5-51.8c-5.9-32.7-6.7-66-9.8-99.1c-7-74.5-38.1-135-105.6-175.1
	c-35.5-21-73.2-11.4-100,14c-7.7,6.6-27.6,9-60.9,8.2c-4.4-0.1-8.7-0.7-13-1.6c-19.1-4.4-37.8-10-56.2-16.8
	c-27.3-10-53.5-22.2-74.7-42.3h-62.9c2.9,3.8,5.2,7.9,8.2,11.6c25.5,31.7,58.8,52,97,65.5c15.7,5.5,31.3,11,48,12.8
	c34.1,2.5,58.8-5,73.9-9.2c12.5-3.1,24.9-8.1,37.8-8c21.9,0.3,28.7-1.6,36.9,20.7c7.2,19.7,19.7,34.7,37.9,45.6
	c13.5,8.1,27.7,14.5,41.7,21.5c29.5,14.8,49,37.4,57.9,68.5c8.1,28.1,13,57,10.1,86.4c-1,11.1-4,21.9-8.8,32
	c-14.8,30.7-25.4,34.3-55.5,21.5c-25.8-11-51.4-18.5-80.4-17.1c-13.9,0.7-42.5,15.1-53.5,30c-7.5,10.2-7.9,22.3-6.9,33.6
	c1.2,13.5,13,19.5,24.5,24.6c4.2,1.8,8.6,3.3,13,4.6c17.4,5.7,30,23,29.6,40c-0.7,23-15.2,40.2-37.8,45.5
	c-41.8,10-83.4,20.8-122.8,38.3c-59.3,26.3-96.1,80.4-93.8,140c0.8,20.4-9,32.2-24.5,41.8c-26.3,16.5-55.9,27.1-86.8,31
	c-14.6,1.7-46.8,8.1-61.9,0.9c-10-4.8-20.3-6.8-30.5-9.9c-32.3-9.9-65.3-17.5-96-31.9c-9.6-4.5-18.1-10.9-27.6-15.6
	c-5.5-2.7-10.2-2.3-14.8,1.8c-4.9,4.3-4.8,9.5-2.6,14.6c6.4,14.7,17.5,26.3,26.8,39.1c16,22,24.9,46.5,29.4,72.9
	c1.8,10.2,2.6,20.6,3.9,30.9c1.8,14.6,9.7,21.6,24.8,24.6s30.2,6.6,45.2-0.1c8.2-3.7,46.2-14.7,56.3-19.1c11.9-5.8,23.9-10,37.9-8.4
	c15.6,1.8,28.3,8.3,39.7,18.4c10.5,9.3,26.8,12.8,41.7,3c27.5-18,47.6-42.2,64.3-69.5c11.8-19.2,28.4-32.9,48.1-43.7
	c13-7.1,27.2-8.9,41.6-9c33-0.1,62.1-11.7,89.5-28.3c25.8-15.6,53.4-23.8,84-22.1c9.5,0.5,17.5,8.1,17.8,17.6
	c0.5,17.4-3.2,33.7-8.5,50.1c-3.8,11.6,2.1,21,13.7,25.6c11.2,4.5,21.3-0.3,31.4-3.1c23.9-6.6,50.5-8,71.2-21.6
	c34.4-22.7,44.7-32.9,49.9-40c1-3.8,4.5-6,6.8-8.9c16.3-21,17.7-45.8,17.9-70.3c0.6-48.7,24.4-84.9,62.5-112.3
	c15.5-11.1,29.4-9.1,39.3,10.4c7.1,13.8,10.9,29.1,11.1,44.6c0.2,24.7,14.6,98.7,24.9,130.8s41.4,84.8,61.3,112.6
	s27.4,68.8,12.6,101.7s-175.5-20.9-197-30s-171.9-55.3-219.5-58.7s-71.3,38.6-102.5,50.5s-57.7,6.1-97.9,24.1
	c-9.9,4.4-11.5,14-13.7,22.8c-0.9,4.2-1.2,8.4-0.9,12.7c1.4,21,2.4,22.9,25.7,32.7c8.7,3.6,18.2,5.4,26.7,9.3
	c25.6,12,38,33.7,44.5,59.9c2.7,10.9,2.8,22.1,6.3,32.8c7.8,23.3,24.9,38.6,45.3,50.9c14.9,8.9,31.8,11.9,48.8,14.9
	c44.9,7.8,88.9,18.5,123.8,50.6c17.5,16.1,31.2,34.2,35.1,58.3c0.9,5.6,1.9,11.1-1,16.4c-11.1,19.9-25.2,34.8-50.8,35.8
	c-20.4,0.7-41.3,1.2-60.1,11.5c-6.3,3.4-12.4,6.9-17.5,11.9c-4.6,4.6-4,9.8,1.8,13.5c9.7,6.3,21.2,7.1,32.2,9.2
	c29.9,5.7,61,6.6,89.5,18.3c28,11.5,50.3,30.6,67.5,55.3c3.1,4.5,6.2,9.1,9.2,13.6c12,17.5-20.3,47-38.8,50.9
	c-44.5,9.5-87.3-6.5-129.2-20.2c-17.3-5.6-33.8-13.4-51.7-17.2c-14.9-3.1-24.7,0.5-28.5,11.9c-3.2,9.6-0.5,18.2,6.4,25.4
	c7.4,7.7,16.4,13.6,24.9,20c16.6,12.4,33.4,24.5,44.4,42.7c7.4,12.3,11.2,25.5,13.6,39.2c0.8,4.7,2.1,9.4,2.2,14.2h110.3
	c-3.3-5.4-6.8-11.8-8.1-16.2C1166.3,1624.6,1164.9,1618.8,1167.1,1611.5z M945.5,616.3c-11.4,5.5-32.3,10.9-60.9,14.6
	c-5.5,1.3-11.1,0.9-16.6,0.9c-6.4-0.1-14.7,1.7-17.1-5.6s4.3-11.8,9.7-16.3c20.6-17.1,45.9-20.3,71.2-23.4c9-1.1,17.3,2.1,21,10.9
	C956,604.5,952.8,613,945.5,616.3z M1262.3,1203.8c-15.6-9.8-32.9-15-50-20.6c-21.6-7-41.5-16.5-58.1-32
	c-18.6-17.7,29-49.8,37.7-55.5s50.7-12.7,70.3-5.4c37.9,14,66.7,40.7,88.2,74c6.5,10.2,12.2,23.1,9.5,36.1
	c-4.9,23.6-23.7,32.4-47.8,25.7C1294.5,1221.1,1277.7,1213.6,1262.3,1203.8L1262.3,1203.8z"/>
<path class="st0" d="M1255.8,1565.2c16.8-9.5,34.4-16.1,54.5-11.1c4.1,1,8.6,0.6,12.9,0.1c12-1.6,24.1-3.1,36-5.5
	c11.4-2.3,21.9-6.7,25.8-19c2.4-7.4,3.5-15.1,5-22.7c2.3-12.1,0.1-24.4,2.6-36.4c2.8-13.8,0.8-27.7-1.5-40.9
	c-3.1-17.3,0.6-33,8.3-47.2c14.5-26.4,36.1-48.3,62.4-63c9.3-5.3,52.3-21.8,57.2-24.6s9.4-6,14.7-8.4c17.9-8.2,37.6-12,57.3-10.8
	c7.9,0.4,15.8-0.9,22-5.6c11.4-8.5,10.9-27.3-2.8-37c-25.5-18-26-52.9-10-76.5c11.2-16.4,26.5-28.4,43.2-39.3
	c22.1-14.5,47.2-21.9,71.3-31.5c41.7-16.6,80.5-37.8,108.6-73.1c20.7-26,41-52.9,43.8-88c1.2-15.8-1.2-30.9-10.5-43.5
	c-13.1-17.5-32.2-26.7-53.3-32.1c-15.5-4-31.1-7.5-46.1-12.8c-41.2-14.8-80.8-33.6-118.2-56.3c-20.8-12.5-41.3-25.4-61.9-38.2
	c-12.9-8-25.9-22.5-40.6-36.4c-18.6-15.9-35.6-33.6-50.7-52.8c-15.8-20.2-29.2-41.7-38.8-65.5c-11-27.4-15.8-55.7-15.3-85.5
	c0.4-28.6-1.2-57.2-4.8-85.5c-4.1-32.2-9.2-64-20.6-94.6c-6.8-18.3-22.1-30.8-46.9-19c-15.1,7.2-29.3,16.2-43.6,25.1
	c-12.1,7.5-26.2,12.1-40.4,10.9c-26.8-2.3-39.4-13.6-40.5-45.2c-0.6-18.2,0-36.4-0.1-54.6c-0.2-35.7-2.6-71.2-9.2-106.4
	c-9-48.6-26.8-93.2-57.2-132.6h-51.8c8.7,11.9,14.2,25.7,20.2,39c11.9,26.3,20.2,53.8,26.9,81.8c6.5,27,11.8,54.3,15.8,81.8
	c2.6,17.7,6.9,35.1,8.9,52.8c2.2,19.1,6,37.9,11.2,56.4c6.2,22.2,16.9,40.8,37.9,52.9c10.2,6,21.6,9.6,33.4,10.5
	c19.3,1.5,38.4,0.2,56.4-8.7c5.4-2.7,10.3-6.1,14.7-10.2c7.1-6.6,15-10.5,24.9-7.2c10.1,3.3,14,11.5,15.7,20.9
	c6.4,36.2,6.8,72.6,4.1,109.2c-1.1,14.9-3,29.7-4.3,44.5c-1,12.8-4,25.4-5.7,38.2c-2.8,21.9-2.5,43.4,3.2,64.6
	c9.8,36.6,29.2,67.9,55.1,95.7c16.1,17.2,34.1,32,52.8,46.3c21.5,15.5,40.7,27.8,56.3,37.3c29,17.6,56.9,36.6,84.7,55.9
	c27.1,18.8,54.8,36.3,82.3,54.3c23.7,15.5,44.2,34.3,57.3,59.9c10.1,19.8,3.6,36.1-17.5,44.6c-15.5,6.2-32.2,8.3-48,13.6
	c-51.7,17.1-95.8,44.3-126.5,90.1c-13.1,19.5-21.2,41-25.7,63.7c-8.7,44.2-36.9,69.3-79.5,81c-10.9,3-21.6,6.6-32.3,10
	c0,0-12.4,2.5-22,6.6s-11.2,24.6-26,35.2c-10.2,7.4-22.7-0.7-32.4-8.1c-7.5-5.8-15.3-11-25.8-6.5c-10.8,4.6-13.2,13.9-14.7,23.7
	c-2.7,17.2,3.1,33,8.1,49.2c14.1,44.9,11.1,88-15.6,128.2c-10.2,15.7-26.1,26.8-44.3,30.8c-19.7,4.6-35.4,14.1-45.2,32
	c-5.9,10.9-15.6,18.6-24,27.3c-13.8,7.4-27.3,7.1-29.6,14.5s-0.8,13.1,1.9,22.6c1.3,4.5,4.8,10.8,8.1,16.2h34.2
	c1.9-11.8,4.4-23.6,7.5-35.1C1225.1,1594.2,1236,1576.4,1255.8,1565.2z"/>
<path class="st0" d="M852.3,27.7c20.2,0.1,54.5,0.1,72.9-4.6c15.4-3.3,30.3-7.8,44.5-15.1c4.8-2.5,9.2-5.5,13.8-8.2h-83
	c-3,1.3-6.1,2.3-9.2,3.1c-21,4.8-40.8,2.8-60.3-3.1h-57c7.8,5,15.3,10.4,23.8,14.4C815.1,22.2,832.9,27.6,852.3,27.7z"/>
<path class="st0" d="M2187.3,142.3c14.2,26.7,45.7,36.8,74.9,42.1v-17.5c-3.1-0.9-6.4-1.7-8.5-2.4c-13.4-4.5-26.6-9.4-37.9-18.2
	c-6.4-5-6.2-11.2-2.7-17.2c8-13.5,21.4-19.3,35.9-23.8c4.2-1.3,9-0.8,13.1-2.2V80.2c-18.5,2.3-36.9,4.8-55.6,5.7
	C2194.1,86.8,2174.1,115.4,2187.3,142.3z"/>
<path class="st0" d="M2182.6,53.5c-12-5.7-27.2-3.8-33.2,13.3c-1.5,4.2-1.1,8.8,1.1,12.7c9.6,18.2,11.5,37.3,8.3,57.4
	c-1.4,8.7,1.7,17,9.2,21.6c16.5,10.3,31.6,23,51.5,27.8c11.4,2.7,28.1,3.7,42.7,2.8v-4.7c-29.2-5.2-60.7-15.3-74.9-42.1
	c-13.3-27,6.8-55.6,19.4-56.4c18.6-0.9,37.1-3.4,55.6-5.7V56.2c-6.6,3.5-14.2,4.2-21.4,6C2220.3,67.2,2201.4,62.5,2182.6,53.5z"/>
<path class="st0" d="M0-0.2v71.1C13.5,47.2,27.1,23.4,40.8-0.2H0z"/>
<path class="st0" d="M2213.3,129.1c-3.6,6-3.7,12.3,2.7,17.2c11.3,8.8,24.4,13.7,37.9,18.2c2.1,0.7,5.3,1.5,8.5,2.4V103
	c-4.1,1.5-9,0.9-13.1,2.2C2234.7,109.7,2221.3,115.6,2213.3,129.1z"/>
<path class="st0" d="M112.1,1053.8c6.5,20.8,16.3,40.5,35.6,53.9c12.3,8.6,24.6,11.6,38.9,6.3c7.2-2.7,11-8.2,11.7-14.7
	c1-8.2,0.8-16.4-0.6-24.5c-2.9-15-10.6-42.1-12.9-56.4c-1.7-12-3.7-23.9-7.4-35.5c-10-31.5-29.1-57.3-51.7-80.9
	c-20.6-21.7-45.1-39.2-67.3-59.3C38.5,824.8,18.2,807.4,0,787.8V944C53,964.9,94.3,997.1,112.1,1053.8z"/>
<path class="st0" d="M353.7,53.2c3.1,3,6,6.3,9.3,9c3.8,3.5,9.3,4.2,13.8,1.8c4.9-2.3,7-6.3,6.5-11.8c-0.7-8.5-3-16.5-5.5-24.6
	c-3-9.3-4.5-19.1-8.7-27.9h-72.4C319,17.5,344.3,43,353.7,53.2z"/>
<path class="st0" d="M15,1185.7c29.3,25.7,59.1,50.9,94,69.4c30.2,16,61.2,17.8,93.3,8c15.3-4.7,26.8-16.2,40.6-23.6
	c25.2-13.4,51.3-17.4,79.5-10.2c29.1,7.4,54.9,21.2,79.3,37.6c52.9,35.5,109.8,63.3,170,84.4c21.8,7.6,43.9,14.2,67.3,16
	c8.6,0.7,17.4,0.2,25.8,1.6c26.6,4.5,52.6,0.3,78.5-4.9c21.7-4.4,43.1-10.2,64.7-15.3c13.4-3.2,27-5.2,39.7-10.9
	c9.6-4.3,15.9-10.9,15.6-21.9c-0.2-10.6-8.8-15-16.7-17.8s-17.1-3.8-25.7-3.8c-39.5-0.4-78.9-0.3-118.2,4.8
	c-19.9,2.7-40.1,2.1-59.9-1.6c-32.5-6.4-63.3-17.8-91.4-35.3c-44.6-27.6-84.2-61.2-121-98.2c-5.6-5.6-11-11.6-18.5-14.6
	c-15.6-6.3-34-17.7-44.3-25.5c-21.8-16.3-43.2-33-63.8-50.8c-39.5-34-62.2-77.1-73.6-126.6c-7-30.2-17.4-58.6-34.9-84.7
	c-23.2-34.6-51.2-65.3-77.7-97.2c-16.8-20.2-35.9-38.5-50-60.8c-19.2-30.5-27.1-64.3-31.2-99.2c-1.8-15.7,1.9-31.2,5.6-46.3
	c4.9-20.3,13.1-39.2,29.3-53.8c32.8-29.4,72.2-40.8,115.4-41.7c17.6-0.4,35.1-0.8,52.6,1.7c8.6,1.2,17.2,2,25.9,2.8
	c13,1.2,25.6,5,38.8,4.7c5.8-0.1,9.7-1.9,11-7.4c1.4-5.9-2.2-8.3-7.3-10.1c-7.6-2.7-15.9-3.2-23.1-7.2c-10.9-6.4-32-10.1-51.7-16.4
	c-37.2-10.8-73.7-23.6-108.8-39.5c-33.2-15.1-66.2-31.2-96.2-52.3C18.5,332.4,8.5,327,0,319.6v59.8c11.1,5.9,21.4,13.3,33.3,17.7
	c0,0,35.9,16.1,44.3,28.2c12.1,15.2,7.4,23.9-4.8,38.1c-18.8,21.8-36.4,44.3-48.7,70.2c-14.8,30.9-21.6,65-19.8,99.1
	c2.5,51.2,23.9,93.7,56.6,131.9c29.8,34.7,62.3,67,89.6,103.7s50.6,75.2,66.8,118.2c13.6,36,36.2,67.2,62.5,95.6
	c3.1,3.4,8.4,7.9,11,11.8c0,0,28.1,21.8,40.7,38.2c6,8.3,12.5,16.5,15.6,26.4c5.4,17.2-0.3,26.9-17.5,28.4
	c-8.9,0.8-18.1,0.3-26.7,1.9c-29.8,5.4-58.4,16.4-84.2,32.3c-9.9,6-18.6,13.8-29.4,18.4c-20.2,8.7-40.7,6.8-60.9,0.8
	c-35.3-10.5-61.9-33-82.9-61.9c-16.4-22.6-29.9-47.1-45.5-70.2v65.1C4.5,1177.9,10.1,1181.4,15,1185.7z M613.2,1313.2
	c10.2,4.8,29.8,6.2,48,5.5c22.8-1,45.5-0.4,68.3-1.1c7.3-0.2,11.9,2.7,12.7,9.3c0.7,6.1-3.6,9.3-9.8,11.1
	c-9.2,2.6-18.6,1.9-27.8,3.2c-25.1,3.4-50.4,4.4-75.7,4.7c-13.7,0.2-26.7-3.5-37.8-11.8c-7.9-5.8-17.3-9.8-23.5-17.6
	C577.4,1302.4,595.2,1301.3,613.2,1313.2L613.2,1313.2z"/>
<path class="st0" d="M128.5,1240.3c20.2,6,40.7,7.9,60.9-0.8c10.8-4.6,19.5-12.4,29.4-18.4c25.8-15.9,54.4-26.8,84.2-32.3
	c8.7-1.6,17.8-1.1,26.7-1.9c17.1-1.5,22.8-11.2,17.5-28.4c-3.1-9.9-9.6-18.1-15.6-26.4c-12.5-16.5-40.7-38.2-40.7-38.2
	c-2.6-3.9-7.9-8.4-11-11.8c-26.3-28.4-48.8-59.6-62.5-95.6c-16.2-42.9-39.6-81.5-66.8-118.2S90.8,799.2,61,764.6
	C28.3,726.4,6.9,683.9,4.4,632.7c-1.8-34.2,5-68.3,19.8-99.1c12.3-26,29.9-48.4,48.7-70.2c12.2-14.2,16.9-22.9,4.8-38.1
	c-8.4-12.1-44.3-28.2-44.3-28.2c-11.9-4.5-22.2-11.8-33.3-17.7v408.5c18.2,19.5,38.5,37,58.4,54.9c22.2,20,46.6,37.6,67.3,59.3
	c22.6,23.6,41.7,49.5,51.7,80.9c3.7,11.6,5.7,23.5,7.4,35.5c2.3,14.3,10.1,41.4,12.9,56.4c1.4,8.1,1.6,16.4,0.6,24.5
	c-0.6,6.5-4.5,12-11.7,14.7c-14.4,5.3-26.6,2.3-38.9-6.3c-19.3-13.5-29.1-33.1-35.6-53.9C94.3,997.1,53,964.9,0,944v164.2
	c15.6,23.2,29.1,47.7,45.5,70.2C66.5,1207.2,93.2,1229.8,128.5,1240.3z"/>
<path class="st0" d="M165.4,1299c15.4-0.3,30.6-4.1,43.6-14.7c22.1-18.3,49-29.9,77.4-33.5c33.8-4.3,65.2,2.6,89.5,28.7
	c1.8,1.9,3.7,3.7,5.5,5.5c11,9.6,37.6,13.1,53.5,25.5c11.5,9.6,23.7,18.4,37,25.4c43,22.8,88.1,39.7,136.5,47.7
	c21.2,3.5,42.4,6.3,63.8,6.7c21.5,0.4,43,0.6,64.7-1.2c20.8-1.7,41.6-2.5,61.8-7.7c29.8-7.7,56.1-21.6,75.5-45.6
	c6.7-8.3,12.8-17.9,7.7-29.9c-3.5-8.2-9.3-13.6-17.6-17.3c-15.9-7.2-32.9-11.7-49.9-12.2c-35.8-1.1-71.5-2.5-107.1-5.8
	c-22.6-2.1-45-5.1-67.5-8.9c-34.1-5.7-66.4-15.8-95.8-33.3c-16.8-10-33.2-20.9-45.6-36.9c-16.2-20.9-31.1-42.6-50.2-61.4
	c-22.5-22.1-47.7-37.9-77.9-47c-42.5-12.8-73.4-39.4-94.4-78.1c-16.3-30.1-24.2-62.7-31.2-95.6c-8.7-41.3-23-80-47.9-114.8
	c-20-27.8-45.3-50.6-68.5-75.5c-27.6-29.5-49-62.2-53.9-103.6c-2.1-17.6-2.6-34.6,4.2-50.9c12.7-30.9,35.1-53.1,66.4-65.3
	c22.7-8.9,46.7-8.5,71-6.1c21.4,2.1,42.6,5.4,63.6,9.8c53.5,11.2,104.8,29.4,156.1,47.9c6.4,2.3,49.5,3.9,53.5,1.8
	c2.4-1.2,4.6-2.7,6.5-4.6c8.5-8.6,7.6-16.5-2.8-22.7c-4.4-2.7-9.1-5.2-13.9-7.3c-26.8-11.3-51.3-27.6-72.1-48.1
	c-17.6-17.1-38.7-29.7-61.8-38.1c-13.4-4.9-27.6-7.5-41.5-11.1c0,0-38-16.9-48-20.9c-33.6-13.4-66.3-28.9-98.8-44.6
	c-40.7-19.7-80.2-41.4-117.3-67.3C25.2,277.7,11.1,266.9,0,253v66.6c8.5,7.4,18.5,12.8,27.8,19.3c30.1,21.1,63,37.2,96.2,52.3
	c35.1,15.9,71.6,28.8,108.8,39.5c19.7,6.3,40.8,10,51.7,16.4c7.2,4,15.5,4.5,23.1,7.2c5.1,1.8,8.7,4.2,7.3,10.1
	c-1.4,5.5-5.2,7.3-11,7.4c-13.2,0.3-25.8-3.5-38.8-4.7c-8.6-0.8-17.3-1.5-25.9-2.8c-17.5-2.5-35.1-2.1-52.6-1.7
	c-43.2,1-82.7,12.3-115.4,41.7c-16.3,14.6-24.4,33.5-29.3,53.8c-3.7,15.1-7.4,30.7-5.6,46.3c4.1,34.9,12,68.8,31.2,99.2
	c14.1,22.4,33.3,40.6,50,60.8c26.5,32,54.5,62.6,77.7,97.2c17.5,26.2,28,54.5,34.9,84.7c11.4,49.5,34.1,92.7,73.6,126.6
	c20.6,17.8,42.1,34.5,63.8,50.8c10.3,7.8,28.7,19.2,44.3,25.5c7.5,3,12.9,9,18.5,14.6c36.8,37,76.4,70.6,121,98.2
	c28.1,17.4,59,28.9,91.4,35.3c19.8,3.8,40,4.3,59.9,1.6c39.4-5.2,78.8-5.2,118.2-4.8c8.6,0.1,17.7,0.9,25.7,3.8s16.5,7.3,16.7,17.8
	c0.2,10.9-6,17.6-15.6,21.9c-12.7,5.7-26.3,7.7-39.7,10.9c-21.5,5.1-43,10.9-64.7,15.3c-25.8,5.2-51.8,9.4-78.5,4.9
	c-8.5-1.4-17.2-0.9-25.8-1.6c-23.4-1.8-45.5-8.4-67.3-16c-60.2-21.1-117.1-48.8-170-84.4c-24.4-16.4-50.2-30.1-79.3-37.6
	c-28.2-7.2-54.3-3.2-79.5,10.2c-13.9,7.4-25.3,18.9-40.6,23.6c-32.1,9.8-63.1,8-93.3-8c-35-18.5-64.7-43.6-94-69.4
	c-4.9-4.3-10.4-7.8-15-12.4v38.5c37.7,28.7,75.5,57.2,119.2,76.8C133.9,1295.2,149.6,1299.3,165.4,1299z"/>
<path class="st0" d="M891.2,2.8c3.2-0.8,6.3-1.8,9.2-3.1h-69.6C850.5,5.6,870.2,7.6,891.2,2.8z"/>
<path class="st0" d="M2221.5,580.8c-9-20.8-11.1-42.6-8-64.6c2.5-17.9,9.3-34.9,15.3-51.9c13.8-38.9,29-77.5,32.4-119.1
	c2.4-29.7-18-58.6-44.3-71.9c-10.8-5.4-43.9-8.5-63.7-19.1c-31.3-23.5-57.7-51.1-79-84.3c-13.6-21.3-31.5-40-52-56
	c-27-21.1-53.7-42.8-74-70.8c-10-13.8-20-27.6-26.4-43.4h-24c25.7,54.9,66.9,96,118.7,128.2c27.3,16.9,50.2,38.6,63.6,68.2
	c4.7,10.4,7.8,21.5,13,31.8c11.1,22.1,25.1,42.6,41.6,60.9c22.8,14.8,45.2,19.9,57.2,30.9c21.4,19.7,30.5,42,32.3,69.1
	c2,30.6-4.3,59.9-12.6,89.3c-7,24.7-10,50.5-7.6,76.3c3.4,36,19.3,66.8,43.2,93.7c5,5.6,9.9,11.2,14.9,16.7v-24.6
	C2244.8,623.3,2231,603.1,2221.5,580.8z"/>
<path class="st0" d="M2204.1,554.4c-2.4-25.8,0.6-51.6,7.6-76.3c8.3-29.4,14.6-58.6,12.6-89.3c-1.8-27.1-10.9-49.5-32.3-69.1
	c-12-11.1-34.5-16.1-57.2-30.9c-16.6-18.3-30.6-38.8-41.6-60.9c-5.2-10.3-8.3-21.4-13-31.8c-13.4-29.6-36.3-51.2-63.6-68.2
	c-51.8-32.1-92.9-73.2-118.7-128.2h-19.4c6.2,9.6,10.6,20.3,17,29.9c20.7,30.8,45.7,57.6,73.9,81.9c21.1,18.2,43,35.4,65.6,51.8
	c25.4,18.5,39.5,44.4,45.1,74.5c5.4,29.7,15.1,58.5,28.8,85.5c14.3,21.2,29.9,36.3,40.6,47.3c8.5,8.8,18.2,15.9,26,25.4
	c17.8,21.8,23.4,46.5,20.3,73.8c-2.2,19.6-9,38.1-13.1,57.3c-2.4,11.1-0.7,22.2,1.3,32.7c7.6,39.5,28.7,72.7,52.2,104.8
	c8.3,11.3,17.9,21.6,26.1,33v-32.8c-5-5.6-10-11.1-14.9-16.7C2223.4,621.2,2207.5,590.4,2204.1,554.4z"/>
<path class="st0" d="M2262.3,537v-20.1C2261.3,523.5,2261.3,530.3,2262.3,537z"/>
<path class="st0" d="M2183.9,559.8c-2-10.6-3.7-21.6-1.3-32.7c4.1-19.2,10.9-37.7,13.1-57.3c3.1-27.3-2.5-52-20.3-73.8
	c-7.8-9.5-17.4-16.6-26-25.4c-10.7-11-26.4-26.1-40.6-47.3c-13.7-26.9-23.4-55.7-28.8-85.5c-5.6-30.1-19.7-56-45.1-74.5
	c-22.6-16.4-44.5-33.6-65.6-51.8c-28.2-24.3-53.2-51.1-73.9-81.9c-6.4-9.6-10.8-20.3-17-29.9h-33.8c29.4,54.5,72.2,97.6,121.2,135.3
	c20,15.4,40.3,30,62.7,42.1c22.1,11.9,38.6,43.3,32.1,74.5c-6.2,29.8-5,60.4,5,89.9c1.3,3.7,3,7.3,4.6,10.9
	c13.7,17.2,30.2,40.5,41.6,51.9c15.5,15.5,30.9,31,43.4,49.1c16.6,23.9,20.7,50.5,16.4,78.2c-6,38.4-0.1,74.4,16.8,109.2
	c18.9,39.2,44.9,73.3,74.1,105.5v-48.8c-8.3-11.3-17.8-21.7-26.1-33C2212.6,632.6,2191.6,599.3,2183.9,559.8z"/>
<path class="st0" d="M2244.7,535.3c1.2,17,7.3,33.3,17.6,46.9V537c-1-6.7-1-13.5,0-20.1v-57.9c-1.2,1.7-2.3,3.4-3.3,5.3
	C2247.4,486.8,2242.6,510.4,2244.7,535.3z"/>
<path class="st0" d="M2169,678.1c-6.9-22.9-12.5-46.2-14.8-70c-2-21.2-0.8-42.5-3.8-63.7c-2.9-20.7-8.3-40.6-18.4-59.1
	c-14-25.9-36-43.6-60-60c-14-9.5-30.2-27.2-42.5-47.3c-3.4-9.8-7-19.7-8.2-30c-2.9-24.1,0.5-48.6,10-71c5.5-13.2,7-26.5,3.1-41
	c-6.3-23.7-22.4-39.1-42.9-49.7c-33.1-17.1-63.9-36.9-90.3-63.1c-31.2-30.8-57.8-65.4-83.2-100.9c-5.3-7.4-9.6-15.6-15.5-22.6h-57.8
	c16,32.9,37.7,62.7,64.3,87.9c9.7,9.3,20.7,17.2,28.6,28.2c12.6,17.7,19,37.9,24.7,58.3c6.2,22.4,17.6,41,34.1,57.5
	c11,11.1,23.6,21.2,30.6,36.1c7.2,15.1,11.7,31.1,12.5,47.4c1.6,31.7,9.1,62,19.1,91.8c0.9,2.7,0.9,6.1,3.4,8.3
	c7.7,18.2,24.9,42.2,32.3,46.4c16.2,9.2,34.5,12.5,50.7,21c25.2,13.2,50.6,26.2,70.1,47.3c13.9,15.2,22,33.5,26,53.6
	c4.9,24.6,3.8,49,0.2,73.7c-2.1,14.6,0.9,29.3,4.4,43.6c7.2,29.6,16.4,58.5,28.8,86.4c9.5,21.6,21.9,41.8,36.9,60
	c20,24,31.3,51.2,35.1,81.9c3,23.8-4.5,37.5-26.9,45.5c-9.2,3.3-19.3,1.8-28.6,4.6c-39.2,11.6-66.1,34.8-75.9,75.5
	c-9.4,39.3,0.2,75.3,17.8,110c8.2,16.2,19.3,30.7,32.2,43.7c13.1,11.6,46.7,23.2,57.2,29.1c13,7.3,26,14.4,39.9,19.9V1207
	c-3.9-2.8-8.8-4.4-13.1-6.7c-10.8-5.7-34.4-15-53.6-23.7c-15.6-7.7-28.5-18.7-39.7-31.8c-10.6-12.4-15.6-26.5-16.9-42.8
	c-1.2-17.6-0.4-35.3,2.4-52.7c3.9-25.9,16-35.5,42.2-23.8c25.7,11.5,52,13.3,78.6,4.6V839.7c-1-1.1-2-2.2-2.9-3.3
	C2219.6,789,2187,737.5,2169,678.1z"/>
<path class="st0" d="M2171.4,531.7c4.3-27.7,0.2-54.4-16.4-78.2c-12.5-18-27.9-33.6-43.4-49.1c-11.3-11.3-27.8-34.7-41.6-51.9
	c-1.5-3.6-3.3-7.2-4.6-10.9c-10-29.5-11.1-60.2-5-89.9c6.5-31.2-10.1-62.6-32.1-74.5c-22.4-12-42.7-26.7-62.7-42.1
	c-49-37.7-91.8-80.8-121.2-135.3h-42.2c5.9,7,10.2,15.2,15.5,22.6c25.5,35.5,52,70,83.2,100.9c26.4,26.1,57.2,45.9,90.3,63.1
	c20.5,10.6,36.6,25.9,42.9,49.7c3.9,14.5,2.3,27.8-3.1,41c-9.5,22.4-12.9,46.9-10,71c1.2,10.3,4.8,20.2,8.2,30
	c12.3,20.1,28.5,37.8,42.5,47.3c24,16.4,46,34.2,60,60c10.1,18.6,15.5,38.5,18.4,59.1c2.9,21.1,1.8,42.5,3.8,63.7
	c2.2,23.9,7.8,47.2,14.8,70c18,59.4,50.7,110.9,90.4,158.3c0.9,1.1,1.9,2.2,2.9,3.3v-93.3c-29.1-32.1-55.2-66.3-74.1-105.5
	C2171.4,606,2165.4,570,2171.4,531.7z"/>
<path class="st0" d="M2180,186c-13.6-4.6-24-12.4-26.8-27.3c-1.8-9.3-2.8-18.7-3-28.2c-0.2-19.1-4-36.5-22.7-47.6
	c-6.7-4.1-12.2-10-15.7-17.1c-5.3-10.7,3.4-23.1,18.3-27.2c14.8-4.1,30.1-4.2,45.3-5.2c18.2-1.2,61.9,2,86.9,5.8V-0.2h-173.7
	c-14.8,15.5-29.2,31.2-38.8,50.7c-5.7,11.5-4.9,17.1,3.7,26.4c11.9,13,26.3,22.4,43.5,26.1c26.1,5.6,38.9,22.5,44.2,46.7
	c2,9.1,5.3,17.7,8.4,26.4c5.2,14.4,18.1,19,31.4,22.7c24.8,6.9,54.9,14.9,81.4,17.9v-16.7c-13.7-3.2-27.7-5.4-41.7-6.4
	C2206.8,192.8,2193.1,190.2,2180,186z"/>
<path class="st0" d="M2183.7,1025.6c-26.2-11.7-38.3-2.1-42.2,23.8c-2.8,17.4-3.6,35.1-2.4,52.7c1.2,16.3,6.3,30.4,16.9,42.8
	c11.2,13.1,24.1,24.1,39.7,31.8c19.1,8.6,42.8,18,53.6,23.7c4.3,2.3,9.1,3.9,13.1,6.7v-176.9
	C2235.7,1038.9,2209.4,1037.1,2183.7,1025.6z"/>
<path class="st0" d="M2219.6,186.3c-20-4.8-35-17.5-51.5-27.8c-7.5-4.7-10.6-12.9-9.2-21.6c3.1-20,1.3-39.2-8.3-57.4
	c-2.2-3.9-2.6-8.5-1.1-12.7c6-17.2,21.2-19,33.2-13.3c18.8,9,37.8,13.8,58.3,8.7c7.2-1.8,14.9-2.5,21.4-6v-17
	c-25-3.7-68.8-6.9-86.9-5.8c-15.1,1-30.4,1.1-45.3,5.2c-15,4.1-23.7,16.6-18.3,27.2c3.5,7.1,9,13,15.7,17.1
	c18.8,11.1,22.6,28.5,22.7,47.6c0.2,9.5,1.2,18.9,3,28.2c2.8,14.9,13.2,22.7,26.8,27.3c13.1,4.3,26.8,6.8,40.6,7.5
	c14.1,1,28,3.1,41.7,6.4v-10.8C2247.7,190,2231,189,2219.6,186.3z"/>
<path class="st0" d="M2235.2,468.9c-7.2,21-12.4,42.6-10.6,64.6c2.5,30.2,13.4,57.2,37.6,77.2v-28.4c-10.2-13.6-16.3-29.9-17.6-46.9
	c-2.1-24.9,2.7-48.5,14.2-71.1c1-1.8,2.1-3.6,3.3-5.3V410c-1.4,2.3-2.8,4.6-4,7C2250.1,434.1,2241.4,450.9,2235.2,468.9z"/>
<path class="st0" d="M2149.5,176c-3.1-8.7-6.4-17.3-8.4-26.4c-5.3-24.1-18.1-41-44.2-46.7c-17.1-3.7-31.6-13.1-43.5-26.1
	c-8.6-9.3-9.4-15-3.7-26.4c9.6-19.5,24.1-35.2,38.8-50.7h-127.2c10.4,39.6,36.8,66.8,71.6,88.2c16.9,10.4,35.8,17.1,51.9,28.7
	c8.5,6.1,14.5,13.5,19.6,22.7c9.3,16.9,16.3,35.2,29.2,50.2c13.9,16.2,32.3,24.1,52.7,27s53.6,7.7,75.8,12.5v-12.7
	c-26.4-3-56.5-11-81.4-17.9C2167.7,195,2154.8,190.4,2149.5,176z"/>
<path class="st0" d="M2121.8,196.9c-14.6-10.3-25.2-33.5-36.9-50c-24.7-22.8-51-43.2-80.2-60.2c-27.4-15.8-48.7-40.4-60.2-69.8
	c-2.2-5.5-2.7-11.5-4.6-17.1h-18.1c6.5,15.8,16.4,29.6,26.4,43.4c20.3,28,46.9,49.7,74,70.8c20.5,16,38.4,34.7,52,56
	c21.3,33.1,47.6,60.8,79,84.3c19.8,10.6,52.9,13.7,63.7,19.1c26.3,13.2,46.6,42.1,44.3,71.9c-3.3,41.6-18.6,80.2-32.4,119.1
	c-6.1,17.1-12.8,34-15.3,51.9c-3.1,22-1,43.8,8,64.6c9.6,22.3,23.4,42.5,40.8,59.4v-29.7c-24.2-20-35.1-47-37.6-77.2
	c-1.8-22,3.3-43.6,10.6-64.6c6.2-18,14.9-34.8,23.1-51.9c1.1-2.4,2.6-4.7,4-7V243.8C2211.7,247.4,2166.3,228.2,2121.8,196.9z"/>
<path class="st0" d="M2133.7,189.7c-12.9-15-19.9-33.3-29.2-50.2c-5.1-9.2-11.1-16.6-19.6-22.7c-16.2-11.7-35-18.3-51.9-28.7
	c-34.8-21.4-61.2-48.7-71.6-88.2h-21.6c1.9,5.6,2.4,11.6,4.6,17.1c11.6,29.4,32.8,54,60.2,69.8c29.2,17.1,55.5,37.5,80.2,60.2
	c11.7,16.5,22.3,39.8,36.9,50c44.5,31.3,89.9,50.5,140.5,46.9v-14.6c-22.2-4.8-55.5-9.6-75.8-12.5S2147.6,205.9,2133.7,189.7z"/>
<path class="st0" d="M2165.2,1208.5c-12.9-13-24-27.5-32.2-43.7c-17.6-34.7-27.3-70.7-17.8-110c9.8-40.7,36.7-63.9,75.9-75.5
	c9.3-2.8,19.4-1.3,28.6-4.6c22.5-8,29.9-21.7,26.9-45.5c-3.9-30.7-15.1-58-35.1-81.9c-15-18.2-27.4-38.4-36.9-60
	c-12.4-27.8-21.6-56.8-28.8-86.4c-3.5-14.4-6.4-29-4.4-43.6c3.5-24.7,4.7-49.2-0.2-73.7c-4-20.1-12-38.4-26-53.6
	c-19.5-21.2-44.9-34.2-70.1-47.3c-16.2-8.5-34.5-11.8-50.7-21c-7.4-4.2-24.6-28.2-32.3-46.4c-2.5-2.2-2.6-5.6-3.4-8.3
	c-10-29.8-17.4-60.1-19.1-91.8c-0.8-16.3-5.4-32.3-12.5-47.4c-7-14.8-19.6-25-30.8-36.1c-16.5-16.5-27.9-35.1-34.1-57.5
	c-5.7-20.4-12-40.7-24.7-58.3c-7.9-11.1-18.9-19-28.6-28.2c-26.5-25.2-48.3-55-64.2-88h-28.2c0.7,11.6,5.9,22.2,8.5,33.4
	c7.9,34.4,19.6,67.7,35.9,99.2c13.9,26.8,31,51.8,47.1,77.3c20.3,32.4,33.8,67.3,41.7,104.6c6.7,31.8,7.1,63.4,3.9,95.6
	c-1.8,18.5-6.5,36.6-6.2,55.5c0.2,18.1,7.4,32.4,18.8,45.4c6.7,7.7,14.8,14,23,20c20.8,10.7,35.6,22.1,55.4,32.8s40.7,9.9,61.8,5.4
	c25.6-5.4,50.9-12.7,77.6-10.1c9.3,0.9,17.3,3.6,24,10.1c10.3,10.1,11.5,23.3,12.9,36.4c2.1,21.2-4.7,41-10.1,60.9
	c-4.7,17.3-9.2,34.9-8,52.8c1.6,23.5,8.5,46,19.1,67.3c11.7,23.6,28.6,43.4,45,63.8c25.3,31.5,25.5,65.1,1.2,97.2
	c-11.9,15.7-28.5,26-43.5,38.1c-15.6,12.7-29.3,26.7-36.9,45.5c-8.9,22.3-12.7,44.9-9.8,69.2c1.8,15.3,4.2,30.3,9.9,44.5
	c14,34.8,32.4,67.1,53.4,98.3c15.9,23.7,29.4,38.7,48.9,42.8c25,5.2,49.3,11.9,72.2,23.2v-51.5c-13.8-5.6-26.9-12.6-39.9-19.9
	C2211.9,1231.7,2178.2,1220.1,2165.2,1208.5z"/>
<path class="st0" d="M2155.2,1650.3h15.1c8.8-28.8,22.4-55.3,44-76.7c12.9-12.8,29.6-18.4,47.9-17.8v-18
	c-14.3,1.1-44.1,7.3-55.6,15.6C2175.7,1576,2163.8,1613.4,2155.2,1650.3z"/>
<path class="st0" d="M2178.9,1558.7c-18.2,28.3-29.2,59.2-36.7,91.6h12.9c8.6-36.9,20.5-74.3,51.5-97c11.4-8.3,41.2-14.6,55.6-15.6
	v-22.2c-12.2,0.6-24.4,0.7-36.1,4.3C2205,1526.3,2190.6,1540.7,2178.9,1558.7z"/>
<path class="st0" d="M2214.4,1573.6c-21.7,21.5-35.3,47.9-44,76.7h20.1c0.1-0.5,0.3-1,0.5-1.5c10.7-26.7,29.8-45.8,54.5-60.1
	c5.4-3.2,11.4-5.3,16.8-8.3v-24.7C2244,1555.2,2227.3,1560.8,2214.4,1573.6z"/>
<path class="st0" d="M2190.9,1648.8c-0.2,0.5-0.3,1-0.5,1.5h71.8v-69.9c-5.5,3-11.4,5.1-16.8,8.3
	C2220.7,1603,2201.6,1622.2,2190.9,1648.8z"/>
<path class="st0" d="M1699.8,1586.1c2.4-13.1,10.8-20.5,24-23c8.4-1.6,16.7-1.3,25-2.3c34.6-3.8,68.8-8.7,101.5-21.1
	c25.9-9.8,50.2-23.1,74.7-35.6c29.6-15.1,41.2-39.7,44.4-72.6c1.9-19.7-25-47.2-33.2-55.6c-11.2-11.5-25.8-19.2-37.1-30.8
	c-7.6-7.7-10.9-16.5-11.2-27.3c-0.4-15.9,5.4-30.4,8.5-45.5c3.9-18.6,5.4-37.2-1-55.5c-4.7-13.8-12.6-26.3-23.1-36.3
	c-14.5-13.7-17.9-29.8-9.8-47.3c7.3-15.8,16-31.2,28.5-43.7c26-26,49.6-53.8,71.9-82.9c27.9-36.3,52.1-74.4,61-120.1
	c4.4-22.8,7.1-45.5,0.8-68.2c-8.8-32-26.3-57.5-57.2-72.8c-22.9-11.3-48-13.3-72.9-15.3c-15.8-1.3-30.9-4.2-44.3-12.9
	c-14.8-9.7-27.4-22-39.7-34.5c-27.9-28.4-62.4-44.8-100.6-55.5c-12.2-3.4-32.6-10.4-48.9-20.9c-4.9-4.2-10.1-8.2-14.7-12.8
	c-36.1-35.4-64.2-76.2-83-122.8c-21.3-52.8-26.7-107.1-13.9-162.8c6.4-27.9,11-55.9,10.1-84.6c-1.1-33.7-3.1-67.3-4-101
	c-0.4-15.8-0.7-31.6-1.7-47.3c-1.7-25.1-3.3-50.3-6.5-75.3h-217.9c-22.9,34.2-42,70.2-47.6,111.7c-2.7,20.2-4.2,40.9,6.3,60
	c4,7.3,8.6,14.2,16.6,18.2c13,6.6,25.7,4.9,37.8-1.9c22.5-12.6,36.8-32.7,49-54.5c15.1-26.9,24.3-56,35-84.7
	c3.5-9.3,8.2-18.2,13.8-26.5c11.3-17.1,34.4-12.8,41.9,4.5c5,11.6,7,23.8,10.8,35.6c5.1,15.8,9.2,31.9,12.2,48.2
	c1.7,9.4,3.3,18.9,4.3,28.2c2.1,20.8,4.1,41.8,3.6,62.7c-0.6,26.7-0.5,53.7-5.4,80c-5.6,29.7-8.3,59.9-8.1,90.1
	c0.5,39.7,6.2,78.6,21.5,115.4c8,19.2,20.4,36.2,32.9,52.9c22.2,29.8,38.9,62.5,53.7,96.3c0.4,1.2,0.7,2.4,0.8,3.7
	c8,17.8,28.1,34.5,36.9,38.2c32.8,14,67.1,24.6,98.7,41.1c22.3,11.6,43.7,24.8,66.6,35.3c31,14.1,62,28.2,96,34.8
	c13.6,2.7,27.7,3.8,40.7,9.6c19,8.4,30.5,22.7,38.9,41c13.7,30,8.3,58.7-3.9,87.4c-15.9,37.7-39.7,70.3-66.6,100.9
	c-34.9,40-76.1,74-121.9,100.9c-33.1,19.4-69.4,28.5-107.9,28.3c-5.9,0-11.9-0.1-17.5,1.9c-5,1.8-9.8,4.2-9.2,10.8s5.6,7.2,11,8.3
	c17.6,3.5,34.9,8.3,51.8,14.4c39.6,14.5,60.8,45.2,75.8,81.9c7.5,18.4,10,38.5,18.7,56.3c14,28.9,36.4,50.6,65.3,65.6
	c17,10.7,38.2,37.7,39.7,47.3c4.6,30.1-12,44.7-33.3,58.1c-25.3,16-53.8,23.3-83,28.4c-23.2,3.9-46.7,6.6-70.2,8
	c-12.5,0.8-23.7-4.4-35.1-8.9c-13.5-5.3-27.5-9.2-42.4-8.4c-14.2,0.8-21.1,10.3-16.6,23.8c4.4,13,10.2,25.6,9.4,40
	c-1.3,24.5-8.6,46.5-24.3,65.1h66c2.5-6,4.6-12,4.4-18.8C1695.9,1616.3,1697.1,1601.1,1699.8,1586.1z M1367.5,72.3
	c-0.4,8.2-10.7,43.1-19.4,58.2c-2.2,2.1-4.1,4.6-6.5,6.3c-9.7,7-28.1,0.3-29.4-10.9c-1.2-10.8-0.8-22,3.8-31.7
	c7.4-15.5,18.1-29.2,25.5-44.7c1.1-2.2,2.7-4,4.8-5.3c9.9-7.3,18.7-3.3,22.8,5.5C1372.7,57.1,1367.8,64.5,1367.5,72.3z"/>
<path class="st0" d="M1784.8,1582.6c29.2-10,58-20.4,84.1-37.3c19.7-12.8,42-19.8,65.5-22.8c13.8-1.8,27.7-1.1,41.5-0.9
	c28.6,0.5,47.6-18.3,40.1-44.8c-1.7-6-0.4-13.2,1.2-20c2.9-12.3,9.5-21.8,17.8-31c9.6-10.7,7.8-18.7-0.8-29.9
	c-5.2-6.8-28.2-25.6-43.4-35.5c-12.4-7.5-22.5-17.9-32.2-28.3c-5.7-6.1-8.4-14.3-7.6-22.6c1-12.8,4.1-25,10.2-36.4
	c8.9-16.6,21.4-30.9,30.3-47.4c12.9-23.5,18.2-48.4,13.4-75.5c-3.1-17.2-10.2-32.2-19.8-46.3c-7.3-10.7-8.3-21.9-4.5-33.7
	c8.2-25.3,21.5-47.4,39.4-67.5c23.1-26,43-54.1,53-88c4.2-14.1,7-28.1,4.5-42.8c-3.1-18.3-11.5-34.3-22.3-49
	c-18-24.4-29.7-51-34.3-81c-2.2-14.2-6.1-28.5-16.2-40.2c-2.8-3.5-6.8-5.7-11.2-6.4c-10.1-2-19.8,0.2-29.6,1.3
	c-20.2,2.4-39.4-0.4-57.2-9.5c-17.5-9-30.5-23.2-40.8-39.8c-15.4-25-38.2-38.7-66.4-48.2c-19.7-6.6-34.7-23.1-48.9-39.1
	c-10.3-4.7-21.2-5-32.3-4.6c-16.7,0.7-29.2-6.6-39.8-19c-21.5-25.1-32-54.8-36.6-86.5c-2.3-16.2-3.6-32.8-2.7-49.1
	c2-37.3,6.1-74.5,5.8-111.9c-0.1-20.3,0.7-40.7-1.6-60.9c-2.7-23.9-4-47.9-11.8-71c-8-23.6-15.5-47.3-20.5-71.8
	c-5.7-28.2-9.5-56.7-11.5-85.3h-52.3c3.1,25,4.8,50.2,6.5,75.3c1.1,15.7,1.3,31.5,1.7,47.3c0.9,33.7,2.9,67.3,4,101
	c0.9,28.7-3.7,56.8-10.1,84.6c-12.8,55.7-7.3,110,13.9,162.8c18.8,46.7,46.9,87.4,83,122.8c4.6,4.5,9.8,8.5,14.7,12.8
	c16.3,10.5,36.8,17.5,48.9,20.9c38.2,10.7,72.7,27.1,100.6,55.5c12.3,12.5,24.9,24.8,39.7,34.5c13.3,8.8,28.5,11.6,44.3,12.9
	c24.9,2,50,4,72.9,15.3c30.8,15.2,48.4,40.8,57.2,72.8c6.3,22.8,3.6,45.5-0.8,68.2c-8.9,45.7-33.1,83.8-61,120.1
	c-22.3,29-45.9,56.9-71.9,82.9c-12.5,12.5-21.2,27.9-28.5,43.7c-8,17.5-4.7,33.6,9.8,47.3c10.5,10.1,18.4,22.5,23.1,36.3
	c6.4,18.3,4.9,36.9,1,55.5c-3.1,15.1-9,29.6-8.5,45.5c0.3,10.8,3.7,19.6,11.2,27.3c11.3,11.5,25.9,19.3,37.1,30.8
	c8.1,8.4,35.1,35.9,33.2,55.6c-3.2,32.9-14.8,57.6-44.4,72.6c-24.6,12.5-48.8,25.8-74.7,35.6c-32.7,12.4-67,17.3-101.5,21.1
	c-8.3,0.9-16.6,0.7-25,2.3c-13.3,2.6-21.7,9.9-24,23c-2.7,15-3.9,30.3-3.5,45.5c0.1,6.7-2,12.8-4.4,18.8h30.7c0.6-1,1.1-2.1,1.6-3.2
	C1735,1617.2,1753.3,1593.4,1784.8,1582.6z"/>
<path class="st0" d="M2196.6,1499.7c-14.6,8-21.4,23.6-29.5,37.3c-16.7,28.1-26.2,59.3-38.8,89.1c-3.5,8.3-7.5,16.4-12,24.2h26.1
	c7.4-32.3,18.4-63.3,36.7-91.6c11.6-18.1,26.1-32.4,47.2-39c11.7-3.6,24-3.7,36.1-4.3v-32.2H2251
	C2243.7,1483.3,2215.2,1489.4,2196.6,1499.7z"/>
<path class="st0" d="M1890.1,1548.9c27.2-8.8,54.9-15,84-7.7c14.3,3.6,29.1,5.8,44.3,2.2c19.5-4.6,33.9-12.3,40.3-33.7
	c5.6-18.9,18.9-34.2,35.2-46.8c14.6-11.3,31.9-17.4,47.4-26.9c9.3-5.8,16.8-11.6,16.7-23.8c-0.1-10.2-6-15.2-13.9-20.2
	c-17.6-11.2-36.7-18.8-51.8-35.3c-10.3-11.3-27.4-33.2-26.8-50.9c0-2.7,0.7-5.7-0.1-8.2c-3.8-11.4-2.4-23.3-1.3-34.6
	c1.8-18.8,6-37.4,7.3-56.4c1.8-27.5-4.7-51.7-20.2-74.9c-11.9-17.5-17.3-38.7-15.2-59.8c2.6-27,13.7-50.5,31.5-70.9s36-40.5,47-65.6
	c10.5-23.9,14.3-47.8,3-72.8c-7.9-17.4-19-32.3-31.6-46.3c-14.8-16.4-26.8-34.2-30.5-56.4c-2.8-16.8-4.7-33.3,0.8-50.1
	c4.5-13.6,9.3-27,13.2-40.8c4.2-14.8-3.7-31.3-18.6-35.4c-12.9-3.5-25.7,0.1-37.7,3.9c-15,4.6-30.3,7.1-45.3,4.7
	c-23.2-3.7-43.6-14.2-61.2-30.3c-15.1-13.8-29.3-28.8-47.8-38.4s-26.2-22.8-48.9-42.8c-11.4-8.3-20-19.3-28.5-30.1
	c-30.6-39-49.2-83-57.8-131.7c-5-28.5-7.6-56.9-8.7-85.6c-1.1-29.1,3-58.2,1.6-87.3c-0.7-14.2-1.2-28.7-7.6-41.7
	c-4.4-9-8.2-18.2-11.7-27.4c-15.5-41.5-26.8-84.2-37.5-127.1h-60.1c2,28.6,5.8,57.1,11.5,85.2c5,24.5,12.6,48.2,20.5,71.8
	c7.8,23.1,9.1,47.2,11.8,71c2.3,20.2,1.5,40.7,1.6,61c0.2,37.4-3.8,74.6-5.8,111.9c-0.9,16.3,0.4,32.9,2.7,49.1
	c4.6,31.8,15.1,61.4,36.6,86.5c10.6,12.4,23.1,19.7,39.8,19c11.1-0.5,22-0.2,32.3,4.6c14.2,16,29.2,32.5,48.9,39.1
	c28.2,9.5,51,23.3,66.4,48.2c10.3,16.6,23.3,30.8,40.8,39.8c17.8,9.1,37,12,57.2,9.5c9.7-1.2,19.5-3.3,29.6-1.3
	c4.4,0.7,8.4,3,11.2,6.4c10.1,11.7,14,26,16.2,40.2c4.7,30,16.3,56.6,34.3,81c10.8,14.7,19.2,30.8,22.3,49
	c2.5,14.7-0.4,28.7-4.5,42.8c-10,33.9-29.9,62.1-53,88c-17.9,20.1-31.2,42.3-39.4,67.5c-3.8,11.8-2.8,23,4.5,33.7
	c9.6,14.1,16.7,29,19.8,46.3c4.8,27.1-0.5,52-13.4,75.5c-9,16.4-21.4,30.8-30.3,47.4c-6.1,11.4-9.2,23.6-10.2,36.4
	c-0.8,8.3,2,16.5,7.6,22.6c9.7,10.5,19.7,20.8,32.2,28.3c15.2,9.8,38.1,28.7,43.4,35.5c8.6,11.2,10.4,19.2,0.8,29.9
	c-8.3,9.2-14.9,18.6-17.8,31c-1.6,6.8-2.9,14-1.2,20c7.6,26.5-11.4,45.2-40.1,44.8c-13.8-0.2-27.8-0.9-41.5,0.9
	c-23.4,3-45.7,10-65.5,22.8c-26.1,16.9-54.8,27.4-84.1,37.3c-31.5,10.7-49.8,34.6-60.8,64.5c-0.5,1.1-1,2.2-1.6,3.2h56.8
	c4.7-10.3,10.2-20.3,16.6-29.7C1818.9,1586.1,1850.3,1561.8,1890.1,1548.9z"/>
<path class="st0" d="M2143,1499.7c-9.8,16.8-14,35.5-22.2,52.8c-11.4,24.1-27.9,43.4-54.5,51.8c-19,6-38.3,3.2-57.2-1.1
	c-8.2-1.9-16.7-4.3-24.1-8.8c-12.6-4.9-52.2-15-79.9-1.6c-21.7,10.5-41.6,43.8-49.1,57.7h260.1c4.5-7.8,8.5-15.9,12-24.2
	c12.6-29.8,22.1-61,38.8-89.1c8.1-13.7,14.9-29.3,29.5-37.3c18.6-10.3,47.1-16.4,54.5-16.4h11.2v-25.7c-22.2,3-42.9,10.6-62.9,20.3
	c-24.9,12-41.8,30.8-51.8,56.3c-11.7,29.5-28.6,56-58.2,70.7c-28.1,13.9-58.5,17.4-89.3,8.3c-25.2-7.7-60.4-9.7-73.7-3.6
	s-28.2,22.1-28.2,37.1c0-15,15-31.1,28.2-37.1s48.4-4.1,73.7,3.6c30.8,9.1,61.2,5.6,89.3-8.3c29.6-14.6,46.5-41.2,58.2-70.7
	c10.1-25.5,27-44.3,51.8-56.3c20.1-9.7,40.8-17.3,62.9-20.3v-17.1c-23.7,3.8-46.6,10.1-68.5,20.1
	C2167.8,1474.7,2146.9,1493,2143,1499.7z"/>
<path class="st0" d="M2141.2,1243.1c-21-31.2-39.4-63.6-53.4-98.3c-5.7-14.2-8.1-29.1-9.9-44.5c-2.9-24.3,0.8-46.9,9.8-69.2
	c7.6-18.8,21.3-32.9,36.9-45.5c15-12.2,31.6-22.4,43.5-38.1c24.3-32.1,24.1-65.8-1.2-97.2c-16.4-20.4-33.4-40.3-45-63.8
	c-10.6-21.3-17.5-43.8-19.1-67.3c-1.2-17.8,3.3-35.5,8-52.8c5.4-20,12.2-39.8,10.1-60.9c-1.3-13.1-2.6-26.3-12.9-36.4
	c-6.7-6.5-14.7-9.2-24-10.1c-26.7-2.7-52,4.7-77.6,10.1c-21.1,4.5-42,5.2-61.8-5.4s-34.6-22-55.4-32.8c-8.2-6.1-16.3-12.4-23-20
	c-11.4-13-18.6-27.4-18.8-45.4c-0.2-18.9,4.4-37,6.2-55.5c3.2-32.2,2.8-63.8-3.9-95.6c-7.9-37.3-21.4-72.2-41.7-104.6
	c-16-25.6-33.2-50.5-47.1-77.3c-16.3-31.5-27.9-64.8-35.9-99.2c-2.6-11.2-7.8-21.8-8.5-33.4h-56.7c10.7,42.9,22,85.6,37.5,127.1
	c3.5,9.3,7.3,18.4,11.7,27.4c6.3,13,6.9,27.5,7.6,41.7c1.4,29.1-2.7,58.2-1.6,87.3c1.1,28.7,3.6,57.1,8.7,85.6
	c8.6,48.7,27.2,92.7,57.8,131.7c8.5,10.8,17.1,21.8,28.5,30.1c22.7,20,30.4,33.1,48.9,42.8s32.8,24.6,47.8,38.4
	c17.6,16.1,38,26.7,61.2,30.3c15,2.4,30.3-0.1,45.3-4.7c12-3.7,24.8-7.4,37.7-3.9c15,4.1,22.9,20.6,18.6,35.4
	c-3.9,13.8-8.8,27.3-13.2,40.8c-5.6,16.8-3.6,33.3-0.8,50.1c3.7,22.3,15.7,40,30.5,56.4c12.6,14,23.8,28.9,31.6,46.3
	c11.3,25,7.6,49-3,72.8c-11.1,25-29.2,45.1-47,65.6s-28.8,43.9-31.5,70.9c-2.1,21.1,3.3,42.2,15.2,59.8c15.5,23.2,22,47.4,20.2,74.9
	c-1.2,19.1-5.5,37.6-7.3,56.4c-1.1,11.3-2.5,23.1,1.3,34.6c0.8,2.5,0.1,5.4,0.1,8.2c-0.6,17.8,16.5,39.7,26.8,50.9
	c15.1,16.5,34.2,24.1,51.8,35.3c7.9,5,13.8,10,13.9,20.2c0.1,12.2-7.4,18-16.7,23.8c-15.4,9.5-32.8,15.6-47.4,26.9
	c-16.3,12.6-29.6,27.9-35.2,46.8c-6.4,21.3-20.8,29.1-40.3,33.7c-15.2,3.6-29.9,1.4-44.3-2.2c-29.2-7.3-56.8-1.2-84,7.7
	c-39.8,12.9-71.2,37.2-94.2,71.7c-6.4,9.4-11.9,19.3-16.6,29.7h76.8c7.6-13.9,27.4-47.2,49.1-57.7c27.7-13.4,67.3-3.3,79.9,1.6
	c7.4,4.5,15.9,6.9,24.1,8.8c18.8,4.3,38.1,7.1,57.2,1.1c26.6-8.4,43.1-27.6,54.5-51.8c8.2-17.3,12.4-36,22.2-52.8
	c3.9-6.7,24.8-25,50.8-39.1c21.9-10,44.8-16.3,68.5-20.1v-18.7c-13.7,1.2-27.1,4.6-39.8,9.9c-44,18.1-81.9,44.5-111.9,81.6
	c-8.6,10.7-14.6,22.9-22.8,33.9c-20.8,28.3-48.9,39.4-83.3,38.1c-8.1-0.3-15.5-3.8-23-5.8c-49.1-13.7-92.8-5-131.2,28.5
	c-11,9.3-23.7,42.3-23.7,42.3s12.7-33,23.7-42.3c38.4-33.4,82.1-42.2,131.2-28.5c7.5,2.1,14.8,5.5,23,5.8
	c34.4,1.4,62.5-9.8,83.3-38.1c8.1-11,14.1-23.2,22.8-33.9c29.9-37.1,67.9-63.5,111.9-81.6c12.7-5.3,26.1-8.7,39.8-9.9v-34.3
	c-3.7,0.7-7.8-0.4-11.4,0.7c-5.9,1.8-12.1,2.9-18.3,3.3c-12.7,1.6-30.3,21.9-53.6,32.8c-22.3,10.4-41.8,22.7-58.4,40.7
	c-24.9,27.1-43,58.2-59.7,90.3c-5.6,10.7-15.1,13.6-25.9,15.5c-22.8,4.1-44.1-2.5-65.6-8.2c-14.2-3.8-28.3-8.1-43.4-8.4
	c-25.2-0.5-46.3,9.2-65.5,23.9s-32.8,34-43.4,55.4c0,0-6.3,11.9-8.2,16.8c1.9-4.9,8.2-16.8,8.2-16.8c10.6-21.4,24.2-40.7,43.4-55.4
	s40.3-24.3,65.5-23.9c15.1,0.3,29.2,4.6,43.4,8.4c21.5,5.8,42.8,12.3,65.6,8.2c10.8-1.9,20.4-4.8,25.9-15.5
	c16.7-32.1,34.8-63.2,59.7-90.3c16.6-18.1,36.1-30.3,58.4-40.7c23.3-10.9,40.9-31.2,53.6-32.8c6.2-0.4,12.3-1.5,18.3-3.3
	c3.6-1.1,7.8-0.1,11.4-0.7V1309c-22.9-11.3-47.1-18-72.2-23.2C2170.6,1281.8,2157,1266.8,2141.2,1243.1z"/>
<path class="st1" d="M351.7,112.4c-22.5-32.7-47.9-62.9-82-84.7c-20.6-13.1-43.5-22.3-67.4-27c-20.5-4-39.3,4.4-54.2,17.2
	c-29.2,25.1-55.6,53-74,87.1c-9.8,18.2-17.2,37.4-19.5,58.2c-6.5,57.8,13.9,104,60.9,139.3c26.6,20,57.2,31.2,88.8,39.6
	c28.6,7.6,57.4,14.8,85.8,23c18.8,7.3,44.9,28.6,50.8,31.8c4.3,3.5,9.8,4.4,14.8,5.3c13.8,2.5,23.1-6.9,24-22.6
	c0.9-15-2.9-29.3-5.7-43.6c-3.3-16.6-2.6-33.7,2.1-50c5.1-18.2,5.9-37,6-55.5c0.3-28.5-3.8-56.6-13.5-83.7
	C364.2,134.7,359,122.9,351.7,112.4z M293.7,329.5c-8,1-16.3,0.9-24-2.5c-11.3-6.4-51.7-17.3-51.7-17.3c-13.9-2.4-27.7-4.8-41.5-7.3
	c-15.5-2.8-30.9-6.3-43.3-16.4c-22.7-18.6-30.4-44.3-32.2-71.8c-1.7-26.4,5.2-51.8,16.7-75.4c10.1-20.7,20.3-41.8,39.5-56.5
	c10.8-8.3,22.5-14.2,36.9-9.2c12.2,4.2,17.9,14,23.1,24.6c6,12.2,8.5,25.5,12.8,38.2c7.2,20.9,13.5,42,27.5,60.2
	c24,31.2,41.9,66.6,52.7,104.5C314.6,316,307.4,327.9,293.7,329.5L293.7,329.5z"/>
<path class="st1" d="M257.5,196.1c-14-18.1-20.4-39.2-27.5-60.1c-4.4-12.7-6.8-26-12.8-38.2c-5.2-10.6-11-20.4-23.1-24.6
	c-14.4-5-26.1,0.9-36.9,9.2c-19.2,14.6-29.4,35.7-39.5,56.4c-11.5,23.6-18.3,48.9-16.7,75.4c1.8,27.5,9.4,53.2,32.1,71.8
	c12.4,10.2,27.9,13.6,43.3,16.4c13.8,2.5,27.7,4.9,41.5,7.3c0,0,40.4,10.9,51.7,17.3c7.7,3.5,16,3.5,24,2.5
	c13.7-1.6,21-13.6,16.6-28.9C299.4,262.8,281.5,227.3,257.5,196.1z M221.7,276.1c0,0-14.5,10.9-28.2,5.9s-25.3-15-25.3-15
	c-0.4-1.8-1.4-3.4-2.8-4.6c-12-12.1-17.5-26.8-16.6-43.6c0.6-11.3,3.1-22.4,4.1-33.6c0.6-7.4,6.4-13.6,14.4-15.3
	c7.6-1.6,14.6,0.4,19.3,7.1c2.4,3.5,4.6,7.1,6.5,10.9c10,18.8,18.1,38.6,31.4,55.5C233.3,254.6,232.4,265.4,221.7,276.1z"/>
<path class="st1" d="M1359.9,1200.3c2.7-13-2.9-25.9-9.5-36.1c-21.5-33.3-50.3-60-88.2-74c-19.7-7.2-61.6-0.3-70.3,5.4
	s-56.3,37.8-37.7,55.5c16.7,15.5,36.6,24.9,58.1,32c17.1,5.6,34.4,10.9,50,20.6c15.4,9.8,32.1,17.2,49.7,22.2
	C1336.2,1232.7,1354.9,1223.9,1359.9,1200.3z"/>
<path class="st1" d="M193,187.8c-1.9-3.8-4.1-7.4-6.5-10.9c-4.7-6.7-11.7-8.8-19.3-7.1c-8,1.7-13.8,7.9-14.4,15.3
	c-1,11.3-3.5,22.4-4.1,33.6c-0.9,16.9,4.6,31.5,16.6,43.7c1.3,1.2,2.3,2.8,2.8,4.6c0,0,11.5,9.9,25.3,15s28.2-5.9,28.2-5.9
	c10.7-10.7,11.6-21.5,2.8-32.7C211.1,226.4,203,206.6,193,187.8z"/>
<path class="st1" d="M1346.3,44.2c-2,1.4-3.6,3.2-4.8,5.3c-7.4,15.5-18.1,29.3-25.5,44.7c-4.7,9.8-5.1,21-3.8,31.7
	c1.3,11.2,19.7,17.9,29.4,10.9c2.4-1.8,4.3-4.2,6.5-6.3c8.7-15.1,19-50,19.4-58.2c0.3-7.8,5.2-15.2,1.7-22.7
	C1365,40.9,1356.2,36.9,1346.3,44.2z"/>
<path class="st1" d="M931.7,586.4c-25.2,3.1-50.5,6.3-71.2,23.4c-5.4,4.5-12.2,9-9.7,16.3s10.8,5.5,17.1,5.6
	c5.5,0.1,11.1,0.4,16.6-0.9c28.6-3.7,49.5-9,60.9-14.6c7.2-3.3,10.4-11.8,7.2-19C949,588.5,940.7,585.3,931.7,586.4z"/>
<path class="st1" d="M591.1,1334c11.1,8.2,24.1,12,37.8,11.8c25.3-0.3,50.6-1.3,75.7-4.7c9.2-1.3,18.6-0.6,27.8-3.2
	c6.3-1.8,10.5-4.9,9.8-11.1c-0.7-6.5-5.3-9.5-12.7-9.3c-22.8,0.7-45.5,0.1-68.3,1.1c-18.2,0.8-37.8-0.7-48-5.5
	c-18-11.8-35.7-10.8-45.6,3.2C573.8,1324.2,583.2,1328.2,591.1,1334z"/>
<path class="st1" d="M1238.7,864.8c10.6,0.3,30.8,9.4,43,16.1s57.6,34.5,68.3,24.9s-4.9-39-10.4-52.2s-15-43.4-23.2-72.1
	s-11.5-118.6-25-121.6c-13.7-3-24.6,28.9-26.7,41.2s-2.3,55.6-9.7,69.5s-47.4,57.7-49,73.1S1228.1,864.6,1238.7,864.8z"/>
</svg>
